<svg class="cpn-svg cpn-svg-deviantart" preserveAspectRatio="none" xmlns="http://www.w3.org/2000/svg" viewBox="0 0 52 52"><path fill="#00C8E6" d="M29.9,30.5c0.2,0,0.3,0,0.5,0c3.8,0,7.7,0,11.5,0c0.5,0,0.5,0,0.5,0.5c0,3.2,0,6.3,0,9.5c0,0.5,0,0.5-0.5,0.5c-5.9,0-11.7,0-17.6,0c-0.4,0-0.6,0.1-0.7,0.4c-1.2,2.1-2.4,4.1-3.6,6.2c-0.1,0.2-0.3,0.3-0.6,0.3c-2.8,0-5.5,0-8.3,0c-0.3,0-0.5-0.1-0.4-0.4c0-1.5,0-3,0-4.5c0-0.2,0.1-0.4,0.2-0.6c4-7,8.1-14,12.1-20.9c0.1-0.1,0.1-0.2,0.2-0.4c-0.2,0-0.3,0-0.5,0c-3.9,0-7.7,0-11.6,0c-0.5,0-0.5,0-0.5-0.5c0-3.2,0-6.4,0-9.5c0-0.5,0-0.5,0.5-0.5c5.9,0,11.7,0,17.6,0c0.4,0,0.6-0.1,0.7-0.4c1.2-2.1,2.4-4.1,3.6-6.2c0.1-0.2,0.3-0.3,0.6-0.3c2.8,0,5.5,0,8.3,0c0.3,0,0.4,0.1,0.4,0.4c0,1.5,0,3,0,4.6c0,0.2-0.1,0.4-0.2,0.6c-4,7-8.1,14-12.1,20.9C30,30.2,30,30.3,29.9,30.5z"/></svg>