<svg class="cpn-svg cpn-svg-googleplus" preserveAspectRatio="none" xmlns="http://www.w3.org/2000/svg" viewBox="0 0 52 52"><path fill="#00C8E6" d="M25.1,6.7c0.4,0.2,0.8,0.5,1.2,1c0.4,0.4,0.9,1,1.3,1.6c0.4,0.6,0.7,1.3,1.1,2.2c0.3,0.8,0.4,1.8,0.4,2.9c0,2-0.5,3.7-1.4,4.9c-0.4,0.6-0.9,1.1-1.4,1.6c-0.5,0.5-1.1,1-1.7,1.5c-0.3,0.4-0.7,0.8-0.9,1.2c-0.3,0.5-0.5,1-0.5,1.6c0,0.6,0.2,1.1,0.5,1.5c0.3,0.4,0.6,0.7,0.9,1l1.9,1.6c1.2,1,2.3,2.1,3.2,3.3c0.9,1.2,1.3,2.8,1.3,4.7c0,2.8-1.2,5.2-3.7,7.4c-2.5,2.2-6.2,3.4-11,3.4c-4,0-7-0.9-9-2.6c-2-1.6-3-3.4-3-5.6c0-1.1,0.3-2.2,1-3.5c0.6-1.3,1.8-2.4,3.4-3.4c1.9-1.1,3.8-1.8,5.8-2.1c2-0.3,3.7-0.5,5-0.5c-0.4-0.5-0.8-1.1-1.1-1.7c-0.4-0.6-0.6-1.3-0.6-2.2c0-0.5,0.1-0.9,0.2-1.3c0.1-0.4,0.2-0.7,0.4-1c-0.6,0.1-1.3,0.1-1.8,0.1c-3,0-5.4-1-7-2.9c-1.7-1.8-2.5-3.8-2.5-6.1c0-2.8,1.2-5.4,3.6-7.7c1.6-1.3,3.3-2.2,5.1-2.6c1.7-0.4,3.4-0.5,4.9-0.5h11.4l-3.5,2.1H25.1z M27.3,39.7c0-1.5-0.5-2.7-1.4-3.8c-1-1-2.6-2.3-4.7-3.8c-0.4,0-0.8-0.1-1.3-0.1c-0.3,0-1,0-2.2,0.1c-1.2,0.2-2.4,0.4-3.6,0.8c-0.3,0.1-0.7,0.3-1.2,0.5c-0.5,0.2-1.1,0.6-1.6,1c-0.5,0.5-1,1-1.3,1.7c-0.4,0.7-0.6,1.6-0.6,2.6c0,2,0.9,3.7,2.7,5c1.7,1.3,4.1,2,7.1,2c2.7,0,4.8-0.6,6.2-1.8C26.6,42.9,27.3,41.4,27.3,39.7z M19.3,22.9c1.5-0.1,2.8-0.6,3.8-1.6c0.5-0.7,0.8-1.5,0.9-2.2c0.1-0.8,0.1-1.4,0.1-1.9c0-2.3-0.6-4.5-1.7-6.8c-0.5-1.1-1.3-2-2.1-2.7c-0.9-0.7-1.9-1-3.1-1c-1.6,0-2.8,0.7-3.9,1.9c-0.9,1.3-1.3,2.7-1.2,4.3c0,2.1,0.6,4.2,1.8,6.5c0.6,1,1.3,1.9,2.3,2.7C17,22.5,18.1,22.9,19.3,22.9z"/><polygon fill="#00C8E6" points="47.6,10.9 41.6,10.9 41.6,4.9 38.7,4.9 38.7,10.9 32.7,10.9 32.7,13.8 38.7,13.8 38.7,19.8 41.6,19.8 41.6,13.8 47.6,13.8 "/></svg>