<svg class="cpn-svg cpn-svg-instagram" preserveAspectRatio="none" xmlns="http://www.w3.org/2000/svg" viewBox="0 0 52 52"><path fill="#00C8E6" d="M10.1,4.7h32.5c3.1,0,5.6,2.5,5.6,5.6v32.5c0,3.1-2.5,5.6-5.6,5.6H10.1c-3.1,0-5.6-2.5-5.6-5.6V10.3C4.4,7.2,7,4.7,10.1,4.7z M36.3,9.5c-1.1,0-2,0.9-2,2v4.7c0,1.1,0.9,2,2,2h4.9c1.1,0,2-0.9,2-2v-4.7c0-1.1-0.9-2-2-2H36.3z M43.2,23.1h-3.8c0.4,1.2,0.6,2.4,0.6,3.8c0,7.3-6.1,13.2-13.6,13.2c-7.5,0-13.6-5.9-13.6-13.2c0-1.3,0.2-2.6,0.6-3.8h-4v18.5c0,1,0.8,1.7,1.7,1.7h30.4c1,0,1.7-0.8,1.7-1.7V23.1z M26.3,17.9c-4.8,0-8.8,3.8-8.8,8.5c0,4.7,3.9,8.5,8.8,8.5c4.8,0,8.8-3.8,8.8-8.5C35.1,21.7,31.2,17.9,26.3,17.9z"/></svg>