<svg class="cpn-svg cpn-svg-myspace" preserveAspectRatio="none" xmlns="http://www.w3.org/2000/svg" viewBox="0 0 52 52"><path fill="#00C8E6" d="M40.2,26.5c-3.8,0-6.9-3.1-6.8-6.8c0-3.8,3.1-6.8,6.9-6.8c3.8,0,6.8,3.1,6.8,6.9C47,23.5,43.9,26.5,40.2,26.5z M40.2,39.1c-2.2,0-4.4,0-6.6,0c-0.6,0-0.9-0.2-0.9-0.9c0-1.1,0-2.1,0-3.2c0.2-3.6,3.2-6.6,6.7-7c2.9-0.3,5.8,1.2,7.3,4c0.6,1.2,1,2.4,1,3.8c0,0.8,0,1.6,0,2.5c0,0.6-0.3,0.8-0.8,0.8C44.7,39.1,42.4,39.1,40.2,39.1z M30.5,21.7c0,3.4-2.8,6.1-6.2,6.1c-3.4,0-6.1-2.8-6.1-6.3c0-3.4,2.9-6.1,6.3-6C27.8,15.5,30.5,18.3,30.5,21.7z M24.3,39.1c-2,0-4,0-6,0c-0.6,0-0.8-0.2-0.8-0.8c0-1.1-0.1-2.1,0.1-3.1c0.4-3.5,3.7-6.5,7.6-6c2.7,0.4,5.1,2.6,5.7,5.3c0.1,0.6,0.2,1.2,0.2,1.7c0,0.7,0,1.4,0,2.1c0,0.6-0.2,0.8-0.8,0.8C28.3,39.1,26.3,39.1,24.3,39.1z M4.4,23.4c0-3.1,2.5-5.5,5.6-5.5c3,0,5.5,2.5,5.5,5.5c0,3.1-2.5,5.5-5.6,5.5C6.8,28.9,4.4,26.4,4.4,23.4z M9.9,39.1c-1.8,0-3.6,0-5.3,0c-0.6,0-0.8-0.2-0.7-0.8c0-1,0-2,0.1-2.9c0.4-2.9,3-5.3,5.9-5.3c2.4,0,4.2,1.2,5.4,3.3c0.5,0.9,0.7,1.9,0.7,3c0,0.7,0,1.3,0,2c0,0.5-0.2,0.7-0.7,0.7C13.5,39.1,11.7,39.1,9.9,39.1z"/></svg>