<svg class="cpn-svg cpn-svg-patreon" preserveAspectRatio="none" xmlns="http://www.w3.org/2000/svg" viewBox="0 0 52 52"><path fill="#00C8E6" d="M20.7,34c0.2,0.1,0.3,0.2,0.5,0.2c3.3,1.8,6.5,1.8,9.7,0c3.8-2.1,5.7-7,4.3-11.2c-1.5-4.6-5.9-7.3-10.7-6.6c-3.7,0.5-6.8,3.4-7.7,6.9c-0.4,1.4-0.3,2.8-0.3,4.2c0,6.3,0,12.5,0,18.8c0,0.3-0.1,0.6,0.4,0.6c3.5,0,7,0,10.5-0.1c3.8-0.1,7.3-1.4,10.5-3.6c3.7-2.6,6.4-6,8-10.2c1.1-3,1.5-6.2,1.2-9.4c-0.3-2.5-1-5-2.1-7.3c-2.1-4.1-5.1-7.1-9.1-9.2C32,5.4,28,4.7,23.8,5.1c-2.3,0.2-4.5,0.8-6.6,1.8c-3.9,1.8-6.9,4.5-9.1,8.1C6.1,18.2,5,21.7,5,25.4c0,7,0,14,0,21c0,0.2,0,0.3,0,0.5c0.2,0,0.4,0,0.5,0c1.2,0,2.5,0,3.7,0c0.5,0,0.6-0.1,0.6-0.6c0-6.9,0-13.8,0-20.7c0-2.8,0.7-5.4,2.1-7.7c2.5-4.2,6.1-6.8,10.9-7.8c3.8-0.8,7.4-0.2,10.8,1.7c4.3,2.4,7,6,8.1,10.9c0.9,4.4,0.1,8.4-2.3,12.1c-2.3,3.5-5.6,5.8-9.7,6.8c-2.9,0.7-5.8,0.6-8.7-0.3c-0.3-0.1-0.4-0.3-0.4-0.6c0-2.1,0-4.2,0-6.3C20.6,34.4,20.7,34.2,20.7,34z"/></svg>