<svg xmlns="http://www.w3.org/2000/svg" viewBox="-37.5 -20 187.926 187.926"><path style="fill:#00C8E6;fill-rule:evenodd" d="M113.583,56.791c0,42.229-45.414,88.635-56.791,88.635C45.416,145.426,0,99.02,0,56.791C0,25.426,25.426,0,56.792,0C88.159,0,113.583,25.426,113.583,56.791zM56.792,22.521c-2.731,0-5.384,0.327-7.931,0.928c4.619,2.265,7.807,6.998,7.807,12.489c0,7.686-6.231,13.917-13.917,13.917c-7.399,0-13.433-5.779-13.874-13.067c-4.112,5.675-6.543,12.647-6.543,20.191c0,19.031,15.427,34.458,34.458,34.458S91.25,76.01,91.25,56.979S75.823,22.521,56.792,22.521z"/></svg>