<svg class="cpn-svg cpn-svg-pintrest" preserveAspectRatio="none" xmlns="http://www.w3.org/2000/svg" viewBox="0 0 52 52"><path fill="#00C8E6" d="M26,4.7C14.3,4.7,4.8,14.3,4.8,26c0,8.7,5.2,16.2,12.7,19.5c-0.1-1.5,0-3.3,0.4-4.9c0.4-1.7,2.7-11.6,2.7-11.6s-0.7-1.4-0.7-3.4c0-3.1,1.8-5.5,4.1-5.5c1.9,0,2.9,1.5,2.9,3.2c0,1.9-1.2,4.8-1.9,7.5c-0.5,2.3,1.1,4.1,3.4,4.1c4,0,6.7-5.2,6.7-11.3c0-4.7-3.1-8.1-8.8-8.1c-6.4,0-10.5,4.8-10.5,10.2c0,1.9,0.5,3.2,1.4,4.2c0.4,0.5,0.4,0.7,0.3,1.2c-0.1,0.4-0.3,1.3-0.4,1.7c-0.1,0.5-0.6,0.7-1.1,0.5c-3-1.2-4.4-4.5-4.4-8.1c0-6,5.1-13.3,15.2-13.3c8.1,0,13.5,5.9,13.5,12.2c0,8.3-4.6,14.6-11.5,14.6c-2.3,0-4.5-1.2-5.2-2.6c0,0-1.2,4.9-1.5,5.8c-0.5,1.6-1.3,3.3-2.1,4.6c1.9,0.6,3.9,0.9,6,0.9c11.7,0,21.2-9.5,21.2-21.3C47.2,14.3,37.7,4.7,26,4.7z"/></svg>