<svg class="cpn-svg cpn-svg-tumblr" preserveAspectRatio="none" xmlns="http://www.w3.org/2000/svg" viewBox="0 0 52 52"><path fill="#00C8E6" d="M28.6,4.8v11h10.3v6.8H28.6v11.1c0,2.5,0.1,4.1,0.4,4.8c0.3,0.7,0.8,1.3,1.5,1.7c1,0.6,2.1,0.9,3.3,0.9c2.2,0,4.4-0.7,6.6-2.1v6.9c-1.9,0.9-3.5,1.5-5,1.8c-1.5,0.4-3.1,0.5-4.9,0.5c-2,0-3.7-0.2-5.3-0.8c-1.5-0.5-2.8-1.2-3.9-2.1c-1.1-0.9-1.8-1.9-2.2-3c-0.4-1-0.6-2.6-0.6-4.5V22.6h-4.8v-6.1c1.7-0.6,3.2-1.3,4.4-2.4c1.2-1,2.2-2.3,2.9-3.7c0.7-1.5,1.2-3.3,1.5-5.5H28.6z"/></svg>