<svg class="cpn-svg cpn-svg-twitch" preserveAspectRatio="none" xmlns="http://www.w3.org/2000/svg" viewBox="0 0 52 52"><path fill="#00C8E6" d="M15.6,47.9c0-1.9,0-3.7,0-5.7c-3.5,0-6.9,0-10.4,0c0-0.6-0.1-1-0.1-1.5c0-9.3-0.1-18.5,0.1-27.8c0-1.6,0.8-3.3,1.4-4.9C7,6.9,7.2,5.2,8.1,4.6C9,4,10.7,4.3,12,4.3c11,0,22.1,0,33.1,0c0.5,0,1.1,0,1.8,0c0,0.6,0,1.1,0,1.6c0,7.9,0,15.8,0,23.7c0,0.7-0.4,1.6-0.8,2.1c-3.2,3.3-6.4,6.5-9.7,9.7c-0.5,0.4-1.2,0.7-1.9,0.8c-2.1,0.1-4.3,0-6.4,0.1c-0.6,0-1.3,0.3-1.7,0.7c-1.5,1.3-2.8,2.8-4.3,4.2c-0.3,0.3-0.7,0.7-1.1,0.7C19.2,48,17.5,47.9,15.6,47.9z M20.3,41.3c1.9-1.9,3.4-3.5,5-5c0.4-0.4,1.1-0.7,1.6-0.7c2.8-0.1,5.5,0,8.3-0.1c0.7,0,1.5-0.4,2-0.8c1.7-1.6,3.4-3.3,5-5c0.5-0.5,0.8-1.3,0.8-2c0.1-6.1,0-12.2,0-18.2c0-0.4,0-0.9-0.1-1.3c-10.5,0-20.8,0-31.2,0c0,9.2,0,18.2,0,27.4c2.8,0,5.6,0,8.4,0C20.3,37.5,20.3,39.2,20.3,41.3z M36.3,27c-1.2,0-2.4,0-3.6,0c0-3.7,0-7.4,0-11.2c1.2,0,2.3,0,3.6,0C36.3,19.5,36.3,23.2,36.3,27z M25.9,27c-1.2,0-2.4,0-3.7,0c0-3.7,0-7.4,0-11.2c1.2,0,2.4,0,3.7,0C25.9,19.5,25.9,23.2,25.9,27z"/></svg>