<svg class="cpn-svg cpn-svg-vimeo" preserveAspectRatio="none" xmlns="http://www.w3.org/2000/svg" viewBox="0 0 52 52"><path fill="#00C8E6" d="M6.1,20.3c0.4-0.3,0.8-0.5,1.1-0.8c0.4-0.2,0.7-0.5,1.1-0.7c1.3-0.8,2-0.7,2.9,0.6c0.2,0.3,0.5,0.7,0.7,1.1c0.4,0.9,0.9,1.8,1.1,2.8c1.2,4.3,2.4,8.5,3.6,12.8c0.7,2.4,1.5,4.7,3.1,6.7c1.5,1.9,3.4,2.6,5.8,1.9c2.3-0.7,4.2-2,6-3.6c3.3-2.9,6-6.3,8.5-9.7c2.3-3.1,4.3-6.3,5.9-9.8c1.3-2.9,1.7-6,1.1-9.1c-0.5-2.3-1.8-4-4.2-4.6c-0.7-0.2-1.4-0.2-2.2-0.3c-3.4,0-6.4,1.1-8.6,3.8c-1.5,1.8-2.5,3.9-3.2,6.2c0,0,0,0.1,0,0.1c1.2-0.5,2.5-0.8,3.8-0.6c1.2,0.1,1.9,0.8,2.2,2c0.2,1.2,0,2.3-0.4,3.3c-1,2.7-2.5,5.1-4.3,7.4c-0.4,0.5-1,1-1.5,1.4c-0.6,0.4-1.1,0.3-1.6-0.2c-0.2-0.3-0.5-0.5-0.6-0.9c-0.4-0.9-0.8-1.8-1.1-2.7c-1.2-4.1-1.7-8.3-2.4-12.5c-0.3-1.7-0.7-3.3-1.6-4.7c-1.3-2-3.7-2.8-5.9-1.8C14.2,9.1,13,9.9,12,10.7c-2.4,2-4.7,4.1-7.1,6.2c-0.3,0.2-0.6,0.5-0.9,0.8C4.7,18.6,5.4,19.4,6.1,20.3z"/></svg>