<svg xmlns="http://www.w3.org/2000/svg" class="cpn-svg cpn-svg-website" preserveAspectRatio="none" viewBox="0 0 52 52"><path fill="#00C8E6" d="m 29.2,43.5 c 10.2,0 0,0 10.2,0 1.3,0 2,-0.7 2,-2 l 0,-12.4 C 41.4,28.7 41.3,28.5 41,28.3 35.4,23.7 30.6,19.7 25.7,15.7 20.6,19.9 15.4,24.2 10.3,28.4 10.1,28.5 10,28.7 10,29 l 0,12.5 c 0,1.3 0.7,2 2,2 10.2,0 0,0 10.2,0 l 0,-10.4 7,0 z M 34.4,14.8 C 32.3,12.9 29.9,11 28,9.4 26.7,8.25 24.7,8.45 23.6,9.3 c -1.4,1.2 -2.8,2.3 -4.2,3.5 -5,4.1 -9.9,8.3 -14.9,12.4 -0.8,0.7 -0.9,1 -0.2,1.9 0.3,0.5 0.7,0.9 1.1,1.4 0.6,0.7 1,0.8 1.7,0.2 6.6,-5.6 12.8,-10.6 18.6,-15.5 6.3,5.3 13.1,11 18.6,15.6 0.6,0.5 1,0.5 1.5,-0.1 0.4,-0.5 0.9,-1 1.3,-1.6 0.6,-0.7 0.6,-1.1 -0.1,-1.7 l -5.4,-4.5 c -0.2,-0.2 -0.3,-0.4 -0.3,-0.7 l 0,-10.5 C 41.3,8.9 41,8.6 40.2,8.6 l -4.6,0 c -1,0 -1.3,0.2 -1.3,1.2 0.1,1.7 0.1,3.3 0.1,5 z"/></svg>