<svg xmlns="http://www.w3.org/2000/svg" class="cpn-svg cpn-svg-youtube" preserveAspectRatio="none" viewBox="0 0 200 200"><path fill="#00C8E6" d="m 86.9,17.3 -9.2,0 -6.2,24.2 -6.5,-24.2 -9.6,0 C 59,30 64.7,41.2 67,54.2 l 0,25 9.2,0 0,-25.4 z m 25.1,46.5 0,-16.1 c 0,-8.3 -5,-15.3 -12.8,-15.4 -9.3,0.4 -12.3,8.3 -12.3,15.4 l 0,16.2 C 86.6,72.3 91.5,79.2 99.2,79.3 109,78.6 112,71.5 112,63.8 Z m -9,2 c -1,10 -7.4,7 -7.5,0 l 0,-19.3 c 0.6,-9.8 7.5,-6.8 7.5,0 z m 39,13 0,-46.1 -8,0 0,35 c -1,2 -7,6.1 -7,1.9 l 0,-36.5 -9,0 0,36.2 c 0,4.3 1,10.3 6,10.4 3,0 6,-1.9 10,-5.8 l 0,5 c 0,-0.1 8,-0.1 8,-0.1 z m 25,23.2 c -2,-7 -8,-12.4 -15,-13.2 -17,-1.9 -34,-1.9 -51,-1.9 -16.9,0 -34.1,0 -51.1,1.9 C 42.6,89.6 36.8,95 35.3,102 33,113 33,124 33,135 c 0,10 0,22 2.3,32 1.5,7 7.7,13 14.6,13 16.9,2 34.2,2 51.1,2 17,0 34,0 51,-2 8,0 13,-6 15,-13 2,-11 2,-22 2,-32 0,-11 1,-22 -2,-33 z m -56,58 0,4 -8,0 0,-60 8,0 0,19 c 4,-4 11,-7 14,-2 2,3 2,6 2,10 l 0,22 c 0,8 -4,14 -11,11 -2,-1 -4,-3 -5,-4 z m 0,-32 0,28 c 5,1 7,2 7,-3 0,-5 2,-27 -2,-27 -2,-1 -4,0 -5,2 z m -23.8,-9 8.2,0 0.2,45 -8.4,0 0,-5 c -3.8,5 -13.4,8 -15.2,0 -0.8,-13 -0.3,-27 -0.3,-40 l 8.5,0 0,35 c 1,6 4.9,2 6.9,-1 0.1,-11 0.1,-22 0.1,-34 z m 61.8,29 8,0 0,9 c -2,5 -6,7 -11,8 -10,-2 -13,-8 -13,-16 l 0,-22 c 2,-5 6,-9 11,-9 7,-1 11,4 13,10 1,5 0,10 0,15 l -16,0 0,9 c 0,4 3,5 5,5 4,-3 3,-5 3,-9 z m 0,-12 0,-7 c -1,-6 -7,-4 -8,0 l 0,7 z m -104.5,-33 28.3,0 0,9 -9.8,0 c -0.2,17 -0.1,35 -0.1,52 l -0.1,0 -8.6,0 -0.1,0 -0.1,0 0,-52 -9.5,0 z"/></svg>