<svg class="cpn-svg cpn-svg-youtube" preserveAspectRatio="none" id="Layer_1" xmlns="http://www.w3.org/2000/svg" viewBox="0 0 200 200"><path d="M86.9,17.3h-9.2l-6.2,24.2L65,17.3h-9.6c1.9,5.8,3.8,11.5,5.8,17.3c3.1,8.5,5,15,5.8,19.6v25h9.2V53.8L86.9,17.3z M111.5,63.8V47.7c0-5-0.8-8.5-2.7-10.8c-2.3-3.1-5.4-4.6-9.6-4.6c-4.2,0-7.3,1.5-9.6,4.6c-1.9,2.3-2.7,5.8-2.7,10.8v16.2c0,5,0.8,8.5,2.7,10.8c2.3,3.1,5.4,4.6,9.6,4.6c4.2,0,7.3-1.5,9.6-4.6C110.8,72.7,111.5,68.8,111.5,63.8z M103.1,65.8c0,4.2-1.2,6.5-3.8,6.5c-2.7,0-3.8-2.3-3.8-6.5V46.5c0-4.2,1.2-6.5,3.8-6.5c2.7,0,3.8,2.3,3.8,6.5V65.8z M142.3,78.8V32.7h-8.5v35c-1.9,2.7-3.5,3.8-5.4,3.8c-1.2,0-1.9-0.8-1.9-1.9c0-0.4,0-1.2,0-3.1V33.1h-8.5v36.2c0,3.1,0.4,5.4,0.8,6.9c0.8,2.3,2.7,3.5,5.4,3.5c3.1,0,6.2-1.9,9.6-5.8v5C133.8,78.8,142.3,78.8,142.3,78.8z"/><path d="M166.9,102.3c-1.5-7.3-7.7-12.7-14.6-13.5c-16.9-1.9-34.2-1.9-51.2-1.9s-34.2,0-51.2,1.9c-7.3,0.8-13.1,6.2-14.6,13.5c-2.3,10.4-2.3,21.5-2.3,32.3s0,21.9,2.3,32.3c1.5,7.3,7.7,12.7,14.6,13.5c16.9,1.9,34.2,1.9,51.2,1.9s34.2,0,51.2-1.9c7.3-0.8,13.1-6.2,14.6-13.5c2.3-10.4,2.3-21.5,2.3-32.3C169.2,124.2,169.6,112.7,166.9,102.3z"/><path d="M110.7,159.8c0,1.7,0,2.9,0,4.2c-2.7,0-5.2,0-7.8,0c-0.3-1.7-0.4-57.2-0.1-60.5c2.5,0,5.1,0,7.8,0c0,6.4,0,12.8,0,19.7c0.9-0.9,1.5-1.5,2-2c2.1-2,4.5-3.1,7.5-2.9c2.1,0.1,3.6,1.1,4.6,2.8c0.8,1.4,1.3,2.9,1.7,4.4c0.4,1.7,0.5,3.6,0.5,5.4c0.1,7.3,0.1,14.5,0,21.8c0,2.3-0.3,4.7-0.9,6.9c-1.2,4.6-5.5,6.2-9.6,4.6c-1.7-0.7-3.2-1.7-4.5-3C111.7,160.7,111.3,160.4,110.7,159.8z M110.8,127.5c0,9.3,0,18.6,0,28c1.2,0.6,2.3,1.2,3.4,1.7c1.4,0.5,3.2-0.4,3.5-1.7c0.3-0.9,0.7-1.9,0.7-2.8c0.1-7.7,0.1-15.4,0-23.1c0-1.7-0.6-3.3-2.2-4.1C114,125.2,112.2,126,110.8,127.5z"/><path d="M87.2,118.8c2.7,0,5,0,7.3,0c0.3,0,0.6,0,0.9,0.1c0.4,2.1,0.6,35.2,0.2,45c-1.4,0.4-2.8,0.1-4.2,0.2c-1.3,0-2.7,0-4.2,0c0-1.5,0-2.9,0-4.8c-0.8,0.7-1.3,1.2-1.7,1.6c-1.4,1.4-3,2.5-4.9,3.2c-1.6,0.7-3.3,0.6-4.9,0.1c-2.3-0.7-3.1-2.7-3.6-4.8c-0.6-2.4-0.4-4.9-0.4-7.4c0-10.3,0-20.6,0-30.9c0-0.7,0-1.5,0-2.3c2.9,0,5.6,0,8.5,0c0,0.8,0,1.5,0,2.2c0,10.9,0,21.8,0,32.7c0,0.6,0,1.2,0,1.8c0.2,1.4,1.4,2.1,2.6,1.5c0.9-0.4,1.7-1,2.4-1.6c0.7-0.6,1.2-1.4,1.9-2.2C87.2,141.9,87.2,130.5,87.2,118.8z"/><path d="M148.9,148.4c2.9,0,5.6,0,8.5,0c-0.1,1.7,0.2,3.4-0.3,5.1c-0.3,1.1-0.3,2.4-0.6,3.5c-1.4,4.5-5.3,7.4-10.2,7.5c-1.6,0-3.1,0-4.7-0.4c-4.3-1.1-6.9-3.9-8.1-7.9c-0.7-2.2-1-4.5-1-6.9c0.1-5.1,0-10.3,0-15.4c0-2.3,0.3-4.6,0.9-6.9c1.3-5.3,5.5-8.7,10.9-8.7c2.2,0,4.3,0.1,6.4,1.1c3.7,1.9,5.5,5,6.2,8.9c0.9,4.7,0.4,9.5,0.5,14.4c-5.4,0-10.8,0-16.2,0c-0.1,0.7-0.1,1.2-0.1,1.7c0,2.6-0.1,5.3,0.1,7.9c0,1.1,0.3,2.3,0.8,3.2c0.7,1.4,2.6,2.1,4.1,1.8c1.4-0.3,2.7-1.9,2.8-3.7c0.1-1.1,0-2.3,0-3.4C148.9,149.6,148.9,149,148.9,148.4z M148.9,135.9c0-2.4,0.1-4.5,0-6.6c-0.1-2.1-1.1-3.4-2.6-3.8c-2.5-0.7-4.8,0.7-5.1,3.3c-0.2,2.3,0,4.6,0,7C143.8,135.9,146.2,135.9,148.9,135.9z"/><path d="M44.5,103.4c9.5,0,18.9,0,28.3,0c0,2.7,0,5.4,0,8.3c-1.5,0.3-3.2,0.1-4.8,0.1c-1.6,0-3.2,0-4.6,0c-0.2,0.2-0.2,0.2-0.3,0.3c0,0.1-0.1,0.1-0.1,0.2c0,0.2-0.1,0.5-0.1,0.7c0,16.9,0,33.7,0,50.6c0,0.1,0,0.1-0.1,0.3c-2.8,0-5.6,0-8.6,0c0,0,0,0-0.1-0.1c0-0.1-0.1-0.1-0.1-0.2c0-17.2,0-34.3,0-51.5c-1.6-0.5-3.2-0.2-4.8-0.3c-1.5-0.1-3,0-4.7,0c-0.2-1.5-0.1-2.9-0.1-4.3C44.5,106.2,44.5,104.9,44.5,103.4z"/></svg>