<svg xmlns="http://www.w3.org/2000/svg" viewBox="0 0 48 48"><defs><linearGradient x1="10.5" y1="14" x2="56" y2="52.7" id="cpm-grad-icon"><stop offset="0" stop-color="#000" stop-opacity="0.15"/><stop offset="1" stop-color="#000" stop-opacity="0"/></linearGradient></defs><path style="fill:#152b3f" d="M2,24c0,-12.15026 9.84974,-22 22,-22c12.15026,0 22,9.84974 22,22c0,12.15026 -9.84974,22 -22,22c-12.15026,0 -22,-9.84974 -22,-22z"/><path style="fill:url(#cpm-grad-icon)" d="M10.46952,33.90189l0.17533,-1.93299c4.69296,0.44124 4.96764,-6.06345 5.24768,-8.23168c0.12954,-1.0023 0.26056,-2.01286 0.66868,-2.94698l8.10517,8.10517c0.70215,-0.07887 1.36815,-0.27715 1.97723,-0.57404l-9.71533,-9.71533c-0.48164,-0.48164 -0.77958,-1.14705 -0.77958,-1.88197c0,-1.47032 1.19175,-2.66207 2.66158,-2.66207c0.73522,0 1.40079,0.29787 1.88252,0.7796l2.04023,2.04023c0.40228,-0.08362 0.81907,-0.12757 1.24603,-0.12757c0.90148,0 1.7567,0.19579 2.52668,0.54742c-0.01315,-0.10567 -0.01948,-0.21331 -0.01948,-0.32192c0,-1.47081 1.19175,-2.66207 2.66158,-2.66207c0.7351,0 1.40044,0.29777 1.88204,0.77936l14.30259,14.30259c-2.40715,9.53964 -11.04525,16.60037 -21.33248,16.60037c-0.49786,0 -0.99185,-0.01654 -1.48146,-0.04909z"/><path style="fill:#00c8e6" d="M17.90733,23.31447c-0.03214,0.22062 -0.06088,0.44368 -0.08961,0.66625c-0.40179,3.11013 -0.7958,10.53725 -7.34821,9.92116l0.17533,-1.933c4.69296,0.44124 4.96764,-6.06345 5.24768,-8.23168c0.12955,-1.00229 0.26056,-2.01287 0.66868,-2.94698c0.3039,-0.69401 0.65797,-1.25652 1.01301,-1.70848c-0.84742,-0.44514 -1.42552,-1.33396 -1.42552,-2.35768c0,-1.47032 1.19175,-2.66207 2.66158,-2.66207c1.47032,0 2.66207,1.19126 2.66207,2.66207c0,0.20601 -0.02338,0.40715 -0.06818,0.59953c0.78216,-0.36527 1.65491,-0.56933 2.57489,-0.56933c0.90148,0 1.75669,0.19578 2.52668,0.54741c-0.01315,-0.10568 -0.01948,-0.21332 -0.01948,-0.32192c0,-1.47081 1.19175,-2.66207 2.66158,-2.66207c1.47032,0 2.66158,1.19126 2.66158,2.66207c0,0.95554 -0.50407,1.7942 -1.2609,2.2632c0.31316,0.42274 0.62193,0.93362 0.89028,1.54727c0.40861,0.93411 0.53914,1.94469 0.66868,2.94698c0.28004,2.16823 0.55472,8.67292 5.24768,8.23168l0.17533,1.933c-6.5529,0.61609 -6.94642,-6.81103 -7.34821,-9.92116c-0.0375,-0.28929 -0.075,-0.57907 -0.11981,-0.86301c-0.14318,3.23579 -2.81159,5.81604 -6.08341,5.81604c-3.20462,0 -5.83162,-2.47603 -6.07173,-5.61928zM27.26988,20.64266l-0.48313,-0.84109l-2.69762,1.5575l-2.69714,-1.5575l-0.48361,0.84109l2.93919,1.69679l0.24156,0.13978l0.24156,-0.13978z"/><path style="fill:none" d="M2,24c0,-12.15026 9.84974,-22 22,-22c12.15026,0 22,9.84974 22,22c0,12.15026 -9.84974,22 -22,22c-12.15026,0 -22,-9.84974 -22,-22z"/></svg>