<svg class="svg-cospix" xmlns="http://www.w3.org/2000/svg" viewBox="0 0 450 85"><g transform="matrix(1.25,0,0,-1.25,0,85)"><g transform="scale(0.1,0.1)"><path d="m294.469,551.512c-49.977,0 -88.828,-18.91 -116.383,-56.434 -27.406,-37.668 -41.188,-90.144 -41.188,-157.422 0,-139.984 52.625,-210.047 157.571,-210.047 44.121,0 97.476,10.993 160.207,33.129l0,-111.6989C403.23,27.6445 345.629,16.8008 282.012,16.8008 190.691,16.8008 120.891,44.5313 72.5547,99.9063 24.2148,155.281 0,234.906 0,338.535c0,65.227 11.8711,122.387 35.6133,171.496 23.7461,49.106 57.8984,86.77 102.4607,113.008 44.41,26.09 96.594,39.289 156.395,39.289 60.98,0 122.246,-14.805 183.812,-44.269L435.332,509.883c-23.453,11.137 -47.082,20.847 -70.793,29.168 -23.723,8.324 -47.055,12.461 -70.07,12.461zM1200,340.152c0,-103.929 -25.86,-183.656 -77.39,-239.511 -51.47,-55.7933 -125.325,-83.8402 -221.485,-83.8402 -96.297,0 -170.055,28.0117 -221.625,83.8402 -51.574,55.82 -77.242,135.879 -77.242,240.382 0,104.512 25.777,184.461 77.387,239.508 51.687,55.133 125.769,82.668 222.359,82.668 96.445,0 170.236,-27.828 221.336,-83.398 51.02,-55.492 76.66,-135.442 76.66,-239.649zm-458.203,0c0,-70.066 13.277,-122.922 39.867,-158.457 26.574,-35.511 66.402,-53.207 119.461,-53.207 106.125,0 159.335,70.649 159.335,211.664 0,141.442 -52.92,212.239 -158.456,212.239 -53.059,0 -92.981,-17.856 -119.899,-53.5 -26.867,-35.582 -40.308,-88.536 -40.308,-158.739zM1757.96,199.727c0,-56.575 -20.35,-101.3481 -61.12,-133.977 -40.7,-32.5703 -97.63,-48.9492 -170.33,-48.9492 -66.98,0 -126.19,12.6015 -177.8,37.8125l0,123.7107c42.37,-18.906 78.31,-32.195 107.59,-39.871 29.32,-7.687 56.29,-11.723 80.62,-11.723 29.17,0 51.56,5.668 67.13,16.856 15.61,11.207 23.46,27.703 23.46,49.836 0,12.168 -3.55,23.168 -10.41,32.832 -6.74,9.508 -16.84,18.824 -30.19,27.703 -13.29,8.828 -40.41,23.152 -81.35,42.512 -38.34,18.129 -67.15,35.332 -86.34,51.886 -19.19,16.543 -34.49,35.915 -46.02,58.043 -11.45,21.961 -17.15,47.786 -17.15,77.247 0,55.554 18.85,99.328 56.43,131.043 37.59,31.722 89.7,47.64 156.1,47.64 32.69,0 63.8,-3.89 93.52,-11.586 29.61,-7.668 60.54,-18.613 92.93,-32.683l-42.95,-103.485c-33.56,13.781 -61.28,23.324 -83.11,28.731 -21.82,5.406 -43.38,8.207 -64.63,8.207 -25.22,0 -44.55,-5.91 -57.91,-17.59 -13.43,-11.746 -20.22,-27.117 -20.22,-46.027 0,-11.727 2.74,-21.95 8.2,-30.629 5.5,-8.735 14.07,-17.157 25.95,-25.364 11.87,-8.207 40.05,-22.839 84.28,-43.972 58.79,-28.086 99,-56.262 120.78,-84.43 21.72,-28.086 32.54,-62.742 32.54,-103.773zm337.5,158.156 43.83,0c40.89,0 71.53,8.07 91.9,24.187 20.36,16.118 30.49,39.723 30.49,70.649 0,31.222 -8.5,54.23 -25.51,69.183 -17,14.801 -43.83,22.282 -80.18,22.282l-60.53,0 0,-186.301zm300.63,99.527c0,-67.574 -21.12,-119.172 -63.33,-154.933 -42.2,-35.758 -102.32,-53.793 -180.13,-53.793l-57.17,0 0,-223.2387 -133.09,0 0,627.7887 200.51,0c76.23,0 134.12,-16.414 173.69,-49.097 39.73,-32.836 59.52,-81.649 59.52,-146.727zm211.16,-431.9647 0,627.7887 133.1,0 0,-627.7887 -133.1,0" style="fill:#393A39" /><path d="M3600,140.598 3465.49,6.08594 2932.17,539.402 3066.68,673.914 3600,140.598" style="fill:#00C8E6" /><path d="M3600,539.402 3465.49,673.914 2932.17,140.598 3066.68,6.08594 3600,539.402" style="fill:#66e6fa" /><path d="M3400.59,340.004 3266.08,205.492 3131.57,340l134.52,134.512 134.5,-134.508" style="fill:#0a9bb2" /></g></g></svg>