<svg class="svg-hamburger" viewBox="0 0 700 700" xmlns="http://www.w3.org/2000/svg"><path d="m350 0c-74.262 0-145.48 29.5-197.99 82.012-52.512 52.508-82.012 123.73-82.012 197.99s29.5 145.48 82.012 197.99c52.508 52.512 123.73 82.012 197.99 82.012s145.48-29.5 197.99-82.012c52.512-52.508 82.012-123.73 82.012-197.99 0-49.148-12.938-97.434-37.512-140-24.578-42.566-59.922-77.91-102.49-102.49-42.566-24.574-90.852-37.512-140-37.512zm149.33 392c0 4.9492-1.9648 9.6992-5.4648 13.199s-8.25 5.4688-13.199 5.4688h-261.34c-4.9492 0-9.6992-1.9688-13.199-5.4688s-5.4648-8.25-5.4648-13.199v-37.332c0-4.9531 1.9648-9.6992 5.4648-13.199 3.5-3.5039 8.25-5.4688 13.199-5.4688h261.34c4.9492 0 9.6992 1.9648 13.199 5.4688 3.5 3.5 5.4648 8.2461 5.4648 13.199zm0-93.332c0 4.9492-1.9648 9.6992-5.4648 13.199s-8.25 5.4648-13.199 5.4648h-261.34c-4.9492 0-9.6992-1.9648-13.199-5.4648s-5.4648-8.25-5.4648-13.199v-37.336c0-4.9492 1.9648-9.6992 5.4648-13.199s8.25-5.4648 13.199-5.4648h261.34c4.9492 0 9.6992 1.9648 13.199 5.4648s5.4648 8.25 5.4648 13.199zm0-93.332v-0.003907c0 4.9531-1.9648 9.6992-5.4648 13.199-3.5 3.5039-8.25 5.4688-13.199 5.4688h-261.34c-4.9492 0-9.6992-1.9648-13.199-5.4688-3.5-3.5-5.4648-8.2461-5.4648-13.199v-37.332c0-4.9492 1.9648-9.6992 5.4648-13.199s8.25-5.4688 13.199-5.4688h261.34c4.9492 0 9.6992 1.9688 13.199 5.4688s5.4648 8.25 5.4648 13.199z"/></svg>
