<svg viewBox="0 0 160 30"><rect style="fill:#F75139" width="160" height="30"/><rect style="fill:#F63D27" width="30" height="30"/><path d="M20.3,18.4h0.9c0.2,0,0.4-0.2,0.4-0.4v-3h3c0.2,0,0.4-0.2,0.4-0.4v-0.9c0-0.2-0.2-0.4-0.4-0.4h-3v-3c0-0.2-0.2-0.4-0.4-0.4h-0.9c-0.2,0-0.4,0.2-0.4,0.4v3h-3c-0.2,0-0.4,0.2-0.4,0.4v0.9c0,0.2,0.2,0.4,0.4,0.4h3v3C19.9,18.3,20.1,18.4,20.3,18.4zM8.4,23.7C9.2,23.9,10,24,10.8,24c0.8,0,1.5-0.1,2.2-0.3c2.1-0.6,3.5-2.2,3.5-4c0-1.7-0.6-2.7-2-3.8c-0.6-0.4-1.2-1.1-1.2-1.3c0-0.4,0-0.5,0.9-1.2c1.1-0.8,1.7-1.9,1.7-3.1c0-1.1-0.3-2-0.9-2.7h0.4c0.1,0,0.2,0,0.2-0.1l1.2-0.9c0.1-0.1,0.2-0.3,0.2-0.5C16.8,6.1,16.7,6,16.5,6h-5.3C10.6,6,10,6.1,9.4,6.3c-1.9,0.7-3.3,2.3-3.3,4c0,2.4,1.9,4.2,4.3,4.3c0,0.2-0.1,0.4-0.1,0.6c0,0.4,0.1,0.7,0.3,1.1c0,0,0,0-0.1,0c-2.4,0-4.5,1.2-5.3,2.9C5.1,19.6,5,20,5,20.5c0,0.4,0.1,0.9,0.3,1.3C5.8,22.6,6.9,23.3,8.4,23.7zM8.9,10.3C8.8,9.4,9,8.6,9.4,8.1c0.3-0.3,0.7-0.5,1.1-0.5l0,0c1.2,0,2.3,1.3,2.5,2.9c0.1,0.9-0.1,1.7-0.5,2.2c-0.3,0.3-0.6,0.5-1.1,0.5c0,0,0,0,0,0h0C10.2,13.2,9.1,11.8,8.9,10.3zM11.1,17.5L11.1,17.5c0.4,0,0.8,0.1,1.2,0.2c0.1,0.1,0.2,0.2,0.4,0.2c0.8,0.6,1.4,0.9,1.5,1.6c0,0.2,0.1,0.3,0.1,0.5c0,1.6-1.2,2.3-3.4,2.3c-1.7,0-3.1-1.1-3.1-2.4C7.7,18.6,9.3,17.5,11.1,17.5zM38.3,18.2c0.5,0.3,1.2,0.5,1.9,0.5c1.1,0,1.7-0.6,1.7-1.4c0-0.8-0.4-1.2-1.5-1.6c-1.3-0.5-2.1-1.2-2.1-2.3c0-1.3,1-2.2,2.6-2.2c0.8,0,1.4,0.2,1.8,0.4l-0.3,0.9c-0.3-0.1-0.8-0.4-1.5-0.4c-1.1,0-1.5,0.7-1.5,1.2c0,0.8,0.5,1.1,1.6,1.6c1.4,0.5,2.1,1.2,2.1,2.4c0,1.2-0.9,2.3-2.8,2.3c-0.8,0-1.6-0.2-2.1-0.5L38.3,18.2zM45.5,12.1c0,0.4-0.3,0.6-0.7,0.6c-0.4,0-0.6-0.3-0.6-0.6c0-0.4,0.3-0.7,0.7-0.7C45.2,11.4,45.5,11.7,45.5,12.1zM44.3,19.5v-5.8h1.1v5.8H44.3zM52.1,13.7c0,0.4,0,0.9,0,1.6v3.4c0,1.3-0.3,2.1-0.8,2.7c-0.6,0.5-1.4,0.7-2.1,0.7c-0.7,0-1.5-0.2-1.9-0.5l0.3-0.8c0.4,0.2,1,0.5,1.7,0.5c1.1,0,1.9-0.6,1.9-2v-0.6h0c-0.3,0.5-0.9,1-1.8,1c-1.4,0-2.5-1.2-2.5-2.8c0-2,1.3-3.1,2.6-3.1c1,0,1.6,0.5,1.8,1h0l0-0.9H52.1zM51,16c0-0.2,0-0.3-0.1-0.5c-0.2-0.6-0.7-1.1-1.5-1.1c-1,0-1.7,0.9-1.7,2.2c0,1.1,0.6,2.1,1.7,2.1c0.6,0,1.2-0.4,1.5-1.1C51,17.4,51,17.2,51,17V16zM53.7,15.3c0-0.6,0-1.1,0-1.6h0.9l0.1,1h0c0.3-0.6,1-1.1,1.9-1.1c0.8,0,2.1,0.5,2.1,2.5v3.5h-1.1v-3.3c0-0.9-0.3-1.7-1.3-1.7c-0.7,0-1.2,0.5-1.4,1.1c0,0.1-0.1,0.3-0.1,0.5v3.5h-1.1V15.3zM64.1,12.1c0,0.4-0.3,0.6-0.7,0.6c-0.4,0-0.6-0.3-0.6-0.6c0-0.4,0.3-0.7,0.7-0.7C63.9,11.4,64.1,11.7,64.1,12.1zM62.9,19.5v-5.8H64v5.8H62.9zM65.7,15.3c0-0.6,0-1.1,0-1.6h0.9l0.1,1h0c0.3-0.6,1-1.1,1.9-1.1c0.8,0,2.1,0.5,2.1,2.5v3.5h-1.1v-3.3c0-0.9-0.3-1.7-1.3-1.7c-0.7,0-1.2,0.5-1.4,1.1c0,0.1-0.1,0.3-0.1,0.5v3.5h-1.1V15.3zM75.4,13.7l0.8,3c0.2,0.6,0.3,1.2,0.4,1.8h0c0.1-0.6,0.3-1.2,0.5-1.8l0.9-3H79l0.9,2.9c0.2,0.7,0.4,1.3,0.5,1.9h0c0.1-0.6,0.3-1.2,0.4-1.9l0.8-2.9h1l-1.9,5.8h-1L79,16.7c-0.2-0.6-0.4-1.2-0.5-1.9h0c-0.1,0.7-0.3,1.3-0.5,1.9L77,19.5h-1l-1.8-5.8H75.4zM85,12.1c0,0.4-0.3,0.6-0.7,0.6c-0.4,0-0.6-0.3-0.6-0.6c0-0.4,0.3-0.7,0.7-0.7C84.7,11.4,85,11.7,85,12.1zM83.8,19.5v-5.8h1.1v5.8H83.8zM87.9,12v1.7h1.5v0.8h-1.5v3.1c0,0.7,0.2,1.1,0.8,1.1c0.3,0,0.5,0,0.6-0.1l0,0.8c-0.2,0.1-0.5,0.1-0.9,0.1c-0.5,0-0.9-0.2-1.1-0.4c-0.3-0.3-0.4-0.8-0.4-1.5v-3.2h-0.9v-0.8h0.9v-1.4L87.9,12zM90.6,11h1.1v3.6h0c0.2-0.3,0.4-0.6,0.8-0.7c0.3-0.2,0.7-0.3,1.1-0.3c0.8,0,2,0.5,2,2.5v3.5h-1.1v-3.3c0-0.9-0.3-1.7-1.3-1.7c-0.7,0-1.2,0.5-1.4,1.1c-0.1,0.1-0.1,0.3-0.1,0.5v3.5h-1.1V11zM106,19.1c-0.5,0.2-1.4,0.4-2.5,0.4c-1.2,0-2.2-0.3-3-1.1c-0.7-0.7-1.1-1.8-1.1-3c0-2.4,1.7-4.2,4.4-4.2c0.9,0,1.7,0.2,2,0.4l-0.3,0.9c-0.4-0.2-1-0.3-1.8-0.3c-2,0-3.3,1.2-3.3,3.3c0,2.1,1.2,3.3,3.1,3.3c0.7,0,1.2-0.1,1.4-0.2v-2.4h-1.6v-0.8h2.7V19.1zM112.8,16.5c0,2.1-1.5,3.1-2.9,3.1c-1.6,0-2.8-1.2-2.8-3c0-1.9,1.3-3.1,2.9-3.1C111.7,13.6,112.8,14.8,112.8,16.5zM108.2,16.6c0,1.3,0.7,2.2,1.8,2.2c1,0,1.8-0.9,1.8-2.3c0-1-0.5-2.2-1.7-2.2C108.8,14.3,108.2,15.5,108.2,16.6zM119.4,16.5c0,2.1-1.5,3.1-2.9,3.1c-1.6,0-2.8-1.2-2.8-3c0-1.9,1.3-3.1,2.9-3.1C118.3,13.6,119.4,14.8,119.4,16.5zM114.8,16.6c0,1.3,0.7,2.2,1.8,2.2c1,0,1.8-0.9,1.8-2.3c0-1-0.5-2.2-1.7-2.2C115.3,14.3,114.8,15.5,114.8,16.6zM125.8,13.7c0,0.4,0,0.9,0,1.6v3.4c0,1.3-0.3,2.1-0.8,2.7c-0.6,0.5-1.4,0.7-2.1,0.7c-0.7,0-1.5-0.2-1.9-0.5l0.3-0.8c0.4,0.2,1,0.5,1.7,0.5c1.1,0,1.9-0.6,1.9-2v-0.6h0c-0.3,0.5-0.9,1-1.8,1c-1.4,0-2.5-1.2-2.5-2.8c0-2,1.3-3.1,2.6-3.1c1,0,1.6,0.5,1.8,1h0l0-0.9H125.8zM124.7,16c0-0.2,0-0.3-0.1-0.5c-0.2-0.6-0.7-1.1-1.5-1.1c-1,0-1.7,0.9-1.7,2.2c0,1.1,0.6,2.1,1.7,2.1c0.6,0,1.2-0.4,1.5-1.1c0.1-0.2,0.1-0.4,0.1-0.6V16zM127.5,11h1.1v8.5h-1.1V11zM130.9,16.8c0,1.4,0.9,2,2,2c0.8,0,1.2-0.1,1.6-0.3l0.2,0.8c-0.4,0.2-1,0.4-1.9,0.4c-1.8,0-2.9-1.2-2.9-2.9s1-3.1,2.7-3.1c1.9,0,2.4,1.7,2.4,2.7c0,0.2,0,0.4,0,0.5H130.9zM134,16c0-0.7-0.3-1.7-1.5-1.7c-1.1,0-1.5,1-1.6,1.7H134z"/></svg>