<?xml version="1.0" encoding="UTF-8" standalone="no"?>
<!-- Created with Inkscape (http://www.inkscape.org/) -->

<svg
   xmlns:dc="http://purl.org/dc/elements/1.1/"
   xmlns:cc="http://creativecommons.org/ns#"
   xmlns:rdf="http://www.w3.org/1999/02/22-rdf-syntax-ns#"
   xmlns:svg="http://www.w3.org/2000/svg"
   xmlns="http://www.w3.org/2000/svg"
   xmlns:sodipodi="http://sodipodi.sourceforge.net/DTD/sodipodi-0.dtd"
   xmlns:inkscape="http://www.inkscape.org/namespaces/inkscape"
   width="169.61147mm"
   height="114.16701mm"
   viewBox="0 0 600.98551 404.52877"
   id="svg4527"
   version="1.1"
   inkscape:version="0.91 r13725"
   sodipodi:docname="pirate_eye_patch.svg">
  <defs
     id="defs4529" />
  <sodipodi:namedview
     id="base"
     pagecolor="#ffffff"
     bordercolor="#666666"
     borderopacity="1.0"
     inkscape:pageopacity="0.0"
     inkscape:pageshadow="2"
     inkscape:zoom="0.35"
     inkscape:cx="-55.118674"
     inkscape:cy="-279.85787"
     inkscape:document-units="px"
     inkscape:current-layer="layer1"
     showgrid="false"
     fit-margin-top="0"
     fit-margin-left="0"
     fit-margin-right="0"
     fit-margin-bottom="0"
     inkscape:window-width="1855"
     inkscape:window-height="1056"
     inkscape:window-x="65"
     inkscape:window-y="24"
     inkscape:window-maximized="1" />
  <metadata
     id="metadata4532">
    <rdf:RDF>
      <cc:Work
         rdf:about="">
        <dc:format>image/svg+xml</dc:format>
        <dc:type
           rdf:resource="http://purl.org/dc/dcmitype/StillImage" />
        <dc:title></dc:title>
      </cc:Work>
    </rdf:RDF>
  </metadata>
  <g
     inkscape:label="Layer 1"
     inkscape:groupmode="layer"
     id="layer1"
     transform="translate(64.167042,152.02445)">
    <g
       transform="matrix(1.25,0,0,1.25,-1731.0237,-220.76973)"
       id="g5129">
      <g
         id="#fdfdfeff">
        <path
           style="opacity:1;fill:#fdfdfe;stroke:#fdfdfe;stroke-width:0.09375"
           inkscape:connector-curvature="0"
           id="path13"
           d="m 1459.3,55.28 c 5.3,-0.82 11.17,0.44 14.86,4.55 6.99,6.56 6.2,19.13 -1.48,24.84 -8.15,6.75 -21.9,3.19 -25.63,-6.74 -4.29,-9.23 2.2,-21.21 12.25,-22.65 z" />
        <path
           style="opacity:1;fill:#fdfdfe;stroke:#fdfdfe;stroke-width:0.09375"
           inkscape:connector-curvature="0"
           id="path15"
           d="m 1447.34,138.26 c 9.73,-3.43 21.16,4.44 21.41,14.75 1.02,8.99 -6.73,17.6 -15.72,17.71 -8.45,0.68 -16.62,-6.23 -17.32,-14.68 -1.08,-7.75 4.17,-15.58 11.63,-17.78 z" />
        <path
           style="opacity:1;fill:#fdfdfe;stroke:#fdfdfe;stroke-width:0.09375"
           inkscape:connector-curvature="0"
           id="path17"
           d="m 1549.38,169.6 c 9.97,-2.54 20.82,6.06 20.21,16.42 0.23,9.2 -8.5,17.21 -17.63,16.42 -8.03,-0.37 -15.27,-7.29 -15.54,-15.4 -0.76,-7.95 5.07,-15.96 12.96,-17.44 z" />
      </g>
      <path
         d="m 1333.54,99.3 c 0.69,-0.58 2.06,-1.74 2.75,-2.32 4.83,3.74 7.02,9.57 10.17,14.58 11.74,19.32 25.92,37.12 41.62,53.36 7.96,7.37 15.55,15.18 24.12,21.88 26.73,22.1 57.76,38.41 89.94,51.03 -3.7,-0.79 -7.84,-2.12 -11.28,0.16 4.34,1.93 8.94,3.71 12.23,7.3 -18.14,-7.58 -36.13,-15.63 -53.44,-24.98 -15.82,-9.03 -30.76,-19.57 -44.7,-31.29 -7,-5.61 -13.11,-12.21 -19.75,-18.23 -12.14,-12.31 -23.27,-25.62 -33.24,-39.76 -6.71,-9.99 -15.39,-19.08 -18.22,-31.14 l -0.2,-0.59 z"
         id="path51"
         inkscape:connector-curvature="0"
         style="opacity:1;fill:#090201;stroke:#090201;stroke-width:0.09375" />
      <g
         id="g5106">
        <path
           style="opacity:1;fill:#000000;stroke:#000000;stroke-width:0.09375"
           inkscape:connector-curvature="0"
           id="path24"
           d="m 1490.86,237.99 c 3.44,-2.28 7.58,-0.95 11.28,-0.16 3.04,1.01 6.1,1.95 9.17,2.91 46.48,15.61 95.77,21.84 144.69,21.11 12.84,-0.41 25.76,0.04 38.53,-1.67 3.11,-0.5 6.26,-0.17 9.37,0.34 0.3,0.67 0.89,2 1.19,2.67 -0.79,0.62 -1.56,1.22 -2.34,1.8 -5.68,1.21 -11.53,1.01 -17.29,1.45 -5.8288,28.92505 -8.9263,45.71271 -18.62,69.63 -10.7894,36.49529 -76.788,44.88493 -98.86,41.97 -18.89,-5.77 -34.57,-19.64 -44.53,-36.47 -10.46,-16.91 -15.19,-36.63 -17.64,-56.16 -1.12,-8.33 -1.13,-16.79 -3.12,-24.98 1.18,-4.95 1.09,-10.13 0.4,-15.14 -3.29,-3.59 -7.89,-5.37 -12.23,-7.3"
           sodipodi:nodetypes="cccccccccccccccc" />
        <g
           id="#fdfefdff">
          <path
             style="opacity:1;fill:#fdfefd;stroke:#fdfefd;stroke-width:0.09375"
             inkscape:connector-curvature="0"
             d="m 1607.42,82.62 c 9.89,-2.96 20.89,5.06 21.07,15.35 0.5,8.67 -6.69,17.02 -15.48,17.3 -9.12,0.9 -17.99,-7 -17.71,-16.25 -0.41,-7.41 4.94,-14.57 12.12,-16.4 z"
             id="path39" />
        </g>
        <g
           id="#fefdfeff">
          <path
             style="opacity:1;fill:#fefdfe;stroke:#fefdfe;stroke-width:0.09375"
             inkscape:connector-curvature="0"
             d="m 1792.35,327.33 c 9.09,-3.24 20.04,3.12 21.53,12.7 2.15,9.63 -6.01,19.84 -15.91,19.67 -9.44,0.65 -18,-8.33 -17.03,-17.71 0.38,-6.61 5.08,-12.68 11.41,-14.66 z"
             id="path120" />
        </g>
      </g>
    </g>
  </g>
</svg>
