<svg xmlns="http://www.w3.org/2000/svg" viewBox="0 0 720 720"><g transform="matrix(1.0,0,0,-1.0,0,700)"><path style="fill:#4F4C4C;fill-rule:evenodd" d="m 210.96,520.23 284.23,0 c 11.51,0 20.92,-9.42 20.92,-20.93 l 0,-3.06 c 0,0 -3.45,-1.01 -8.97,-3.38 -5.51,-2.35 -9,-6.32 -9,-6.32 l -0.39,-0.42 c -1.08,9.02 -8.8,16.08 -18.11,16.08 l -253.25,0 c -10.03,0 -18.24,-8.2 -18.24,-18.24 l 0,-326 c 0,-10.04 8.23,-18.24 18.24,-18.24 l 190.2,0 0,81.45 81.29,0 0,95.57 18.23,19.31 0,-123.86 0.16,-0.08 -0.16,-0.16 -90.26,-90.26 -214.89,0 c -11.51,0 -20.93,9.42 -20.93,20.93 l 0,356.68 c 0,11.51 9.42,20.93 20.93,20.93 m 42.51,-317.18 45.3086,0 0,18.1211 -45.3086,0 0,-18.1211 z m 45.31,84.37 6.24,6.25 -51.55,0 0,-18.12 45.31,0 0,11.87 m 78.76,78.75 -124.07,0 0,-18.13 105.94,0 18.13,18.13 m -124.07,-126.87 45.3086,0 0,18.125 -45.3086,0 0,-18.125 z m 160.32,163.12 -160.32,0 0,-18.13 142.19,0 18.13,18.13 m -160.32,-72.5 0,-18.12 69.68,0 18.14,18.12 -87.82,0 m 196.58,108.75 -160.34,0 0,-18.13 142.21,0 18.13,18.13 m -133.15,-217.5 52.29,0 2.09,2.1 -52.27,52.28 -2.11,-2.09 0,-52.29 m 18.13,70.4 52.28,-52.27 147.1,147.08 -52.28,52.29 -147.1,-147.1 m 230.22,151.79 -26.17,26.14 c -7.2,7.22 -18.92,7.22 -26.14,0 l -14.8,-14.81 52.29,-52.29 14.82,14.82 c 7.2,7.22 7.2,18.94 0,26.14" /></g></svg>