<svg xmlns="http://www.w3.org/2000/svg" viewBox="0 0 720 720" class="cpn-camera-svg"><g transform="matrix(1.0,0,0,-1.0,0,700)"><path style="fill:#4F4C4C;fill-rule:evenodd" d="m 370.51,516.26 114.72,0 c 7.48,0 40.71,-45.75 49.55,-56.74 l 23.42,0 c 19.21,0 34.92,-15.72 34.92,-34.92 l 0,-225.94 c 0,-19.2 -15.71,-34.91 -34.92,-34.91 l -396.41,0 c -19.2,0 -34.91,15.71 -34.91,34.91 l 0,225.94 c 0,19.2 15.71,34.92 34.91,34.92 l 27.73,0 0,27.72 65.73,0 0,-27.72 65.71,0 c 8.84,10.99 42.08,56.74 49.55,56.74 z m 57.36,-85.77 c 62.37,0 112.97,-50.6 112.97,-112.97 0,-62.38 -50.6,-112.97 -112.97,-112.97 -62.37,0 -112.97,50.59 -112.97,112.97 0,62.37 50.6,112.97 112.97,112.97 z m 0,-45.29 c 37.37,0 67.69,-30.31 67.69,-67.68 0,-37.37 -30.32,-67.69 -67.69,-67.69 -37.37,0 -67.69,30.32 -67.69,67.69 0,37.37 30.32,67.68 67.69,67.68" /></g></svg>