<svg xmlns="http://www.w3.org/2000/svg" viewBox="0 0 720 720"><g transform="matrix(1.0,0,0,-1.0,0,700)"><path style="fill:#4F4C4C;fill-rule:evenodd" d="m 359.57,238.69 c 67.18,0 121.97,52.98 124.91,119.42 0.92,-5.83 1.69,-11.78 2.46,-17.72 8.25,-63.86 16.33,-216.36 150.88,-203.71 l -3.6,39.69 c -96.36,-9.06 -102,124.5 -107.75,169.02 -2.66,20.58 -5.34,41.33 -13.73,60.51 -5.51,12.6 -11.85,23.09 -18.28,31.77 15.54,9.63 25.89,26.85 25.89,46.47 0,30.2 -24.46,54.66 -54.65,54.66 -30.18,0 -54.65,-24.46 -54.65,-54.66 0,-2.23 0.13,-4.44 0.4,-6.61 -15.81,7.22 -33.37,11.24 -51.88,11.24 -18.89,0 -36.81,-4.19 -52.87,-11.69 0.92,3.95 1.4,8.08 1.4,12.31 0,30.2 -24.47,54.66 -54.66,54.66 -30.18,0 -54.65,-24.47 -54.65,-54.66 0,-21.02 11.87,-39.27 29.27,-48.41 -7.29,-9.28 -14.56,-20.83 -20.8,-35.08 -8.38,-19.18 -11.07,-39.93 -13.73,-60.51 -5.75,-44.52 -11.39,-178.08 -107.75,-169.02 l -3.6,-39.69 c 134.54,-12.65 142.63,139.85 150.88,203.71 0.59,4.57 1.18,9.15 1.84,13.68 4.93,-64.54 58.87,-115.38 124.67,-115.38 z m 67.57,170.24 -60.35,-34.84 -4.96,-2.87 -4.96,2.87 -60.35,34.84 9.93,17.27 55.38,-31.98 55.39,31.98 9.92,-17.27" /></g></svg>