<svg xmlns="http://www.w3.org/2000/svg" viewBox="0 0 720 720"><g transform="matrix(1.0,0,0,-1.0,0,700)"><path style="fill:#4F4C4C;fill-rule:evenodd" d="m 563.48,476.92 c -4.84,0 -8.77,-3.92 -8.77,-8.77 l 0.01,-271.65 c 0,-14.51 -17.53,-14.51 -17.53,0 l 0,297.94 c 0,9.69 -7.85,17.53 -17.53,17.53 l -350.52,0 c -9.68,0 -17.53,-7.84 -17.53,-17.53 l 0,-289.18 c 0,-24.2 19.62,-43.81 43.82,-43.81 0,0 323.09,0 333,0 24.2,0 43.81,19.61 43.81,43.81 l 0,262.89 c 0,4.84 -3.92,8.77 -8.76,8.77 z m -271.66,-262.9 -105.16,0 0,70.11 105.16,0 0,-70.11 z m 0,105.16 -105.16,0 0,70.11 105.16,0 0,-70.11 z m 175.27,-96.39 -140.22,0 0,17.52 140.22,0 0,-17.52 z m 35.05,35.05 -175.27,0 0,17.52 175.27,0 0,-17.52 z m -175.27,70.1 0,17.53 140.22,0 0,-17.53 -140.22,0 z m 175.27,35.05 -175.27,0 0,17.53 175.27,0 0,-17.53 z m 0,61.35 -315.48,0 0,35.05 315.48,0 0,-35.05" /></g></svg>