<svg xmlns="http://www.w3.org/2000/svg" viewBox="0 0 720 720" class="cpn-map-svg"><g transform="matrix(1.0,0,0,-1.0,0,700)"><path style="fill:#4F4C4C;fill-rule:evenodd" d="m 360,589.61 c 85.95,0 155.63,-69.68 155.63,-155.63 l 0,-0.63 -0.01,-0.06 0,-0.58 0,-0.12 -0.01,-0.51 0,-0.18 0,-0.46 -0.01,-0.24 -0.01,-0.39 0,-0.3 -0.01,-0.33 -0.01,-0.36 -0.01,-0.27 -0.01,-0.42 -0.01,-0.21 -0.01,-0.48 -0.01,-0.16 -0.02,-0.53 0,-0.1 -0.03,-0.59 0,-0.04 -0.03,-0.62 0,-0.02 -0.03,-0.61 0,-0.08 -0.03,-0.55 -0.01,-0.14 -0.03,-0.48 -0.01,-0.2 -0.03,-0.43 -0.01,-0.26 -0.03,-0.36 -0.02,-0.32 -0.03,-0.31 -0.02,-0.37 -0.02,-0.25 -0.03,-0.43 -0.02,-0.2 -0.04,-0.49 -0.01,-0.13 -0.05,-0.55 0,-0.07 -0.06,-0.61 0,-0.02 -0.06,-0.62 0,-0.04 -0.06,-0.57 -0.01,-0.1 -0.05,-0.52 -0.02,-0.16 -0.05,-0.46 -0.14,-1.24 -0.03,-0.32 -0.04,-0.29 -0.07,-0.61 -0.06,-0.45 -0.02,-0.17 -0.07,-0.5 -0.01,-0.11 -0.26,-1.84 -0.01,-0.06 -0.08,-0.55 -0.09,-0.61 -0.03,-0.18 -0.07,-0.43 -0.03,-0.23 -0.06,-0.38 -0.27,-1.61 -0.03,-0.21 -0.22,-1.21 -0.1,-0.57 -0.01,-0.03 -0.23,-1.21 -0.01,-0.07 -0.22,-1.13 -0.04,-0.19 -0.09,-0.41 -0.12,-0.6 -0.07,-0.3 -0.06,-0.3 -0.22,-1 -0.04,-0.19 -0.1,-0.47 -0.03,-0.13 -0.42,-1.78 0,-0.04 -0.14,-0.55 -0.44,-1.77 -0.07,-0.26 -0.08,-0.33 0,0 c -0.31,-1.18 -0.63,-2.34 -0.96,-3.51 l 0,0 -0.01,-0.03 c -0.48,-1.69 -1.16,-3.81 -2,-6.26 -20.44,-62.09 -117.27,-294.52 -147.66,-294.52 -30.4,0 -127.22,232.43 -147.66,294.52 -0.84,2.45 -1.52,4.57 -2,6.26 l -0.02,0.03 0.01,0 c -0.33,1.17 -0.65,2.33 -0.96,3.51 l 0,0 -0.09,0.33 -0.06,0.26 -0.44,1.77 -0.14,0.55 -0.01,0.04 -0.41,1.78 -0.03,0.13 -0.1,0.47 -0.05,0.19 -0.22,1 -0.06,0.3 -0.06,0.3 -0.13,0.6 -0.08,0.41 -0.04,0.19 -0.22,1.13 -0.02,0.07 -0.22,1.21 -0.01,0.03 -0.1,0.57 -0.22,1.21 -0.03,0.21 -0.27,1.61 -0.06,0.38 -0.04,0.23 -0.07,0.43 -0.03,0.18 -0.09,0.61 -0.08,0.55 -0.01,0.06 -0.25,1.84 -0.02,0.11 -0.06,0.5 -0.02,0.17 -0.06,0.45 -0.07,0.61 -0.04,0.29 -0.03,0.32 -0.14,1.24 -0.06,0.46 -0.01,0.16 -0.06,0.52 0,0.1 -0.06,0.57 0,0.04 -0.06,0.62 0,0.02 -0.06,0.61 -0.01,0.07 -0.04,0.55 -0.02,0.13 -0.03,0.49 -0.02,0.2 -0.03,0.43 -0.02,0.25 -0.03,0.37 -0.02,0.31 -0.02,0.32 -0.03,0.36 -0.01,0.26 -0.03,0.43 -0.01,0.2 -0.03,0.48 -0.01,0.14 -0.03,0.55 0,0.08 -0.04,0.61 0,0.02 -0.02,0.62 -0.01,0.04 -0.02,0.59 0,0.1 -0.02,0.53 -0.01,0.16 -0.01,0.48 -0.01,0.21 -0.01,0.42 -0.01,0.27 -0.01,0.36 -0.01,0.33 0,0.3 -0.01,0.39 -0.01,0.24 0,0.46 0,0.18 -0.01,0.51 0,0.12 0,0.58 0,0.69 c 0,85.95 69.67,155.63 155.62,155.63 z m 10.48,-97.49 10.5,-32.29 c 0,0 15.21,0 33.96,0.01 18.76,0.01 21.66,-8.93 6.49,-19.96 l -27.47,-19.97 c 0,0 4.71,-14.46 10.51,-32.29 5.81,-17.83 -1.79,-23.36 -16.97,-12.35 l -27.48,19.96 c 0,0 -12.3,-8.94 -27.47,-19.97 -15.16,-11.03 -22.77,-5.51 -16.98,12.33 l 10.48,32.3 c 0,0 -12.3,8.93 -27.48,19.95 -15.17,11.02 -12.27,19.95 6.48,19.96 l 33.96,0.01 c 0,0 4.69,14.46 10.48,32.3 5.79,17.84 15.19,17.84 20.99,0.01 z m -10.48,56.35 c 63.51,0 115,-51.48 115,-115 0,-63.51 -51.49,-115 -115,-115 -63.52,0 -115,51.49 -115,115 0,63.52 51.48,115 115,115" /></g></svg>