<svg xmlns="http://www.w3.org/2000/svg" viewBox="0 0 720 720"><g transform="matrix(1.0,0,0,-1.0,0,700)"><path style="fill:#4F4C4C;fill-rule:evenodd" d="m 182.45,172.27 329.36,0 c 7.88,0 14.34,6.45 14.34,14.34 l 0,158.5 25.73,0 0,77.49 -25.73,0 0,8.76 c 0,17.45 -14.29,31.72 -31.75,31.72 l -294.53,0 c -17.46,0 -31.75,-14.27 -31.75,-31.72 0,-26.09 0,-64.78 0,-90.85 0,-17.21 14.06,-31.28 31.28,-31.28 l 61.38,0 c 17.2,0 31.28,14.04 31.29,31.24 l 0,0.04 c 0.03,15.85 12.91,28.71 28.77,28.71 l 40.81,0 c 15.89,0 28.76,-12.88 28.76,-28.75 l 0,-45.55 c 0,-15.91 -12.87,-28.8 -28.76,-28.8 l -179.2,0 c -7.87,0 -14.33,-6.46 -14.33,-14.31 l 0,-65.2 c 0,-7.89 6.46,-14.34 14.33,-14.34 z m 18.4,130.95 56.08,0 0,-10.8 -21.45,0 0,-19.06 -13.16,0 0,19.06 -21.47,0 0,10.8 z m 220.31,168.63 0,35.88 68.19,0 0,-35.88 -68.19,0 z m 35.23,-165.02 c 14.15,0 25.61,-11.44 25.61,-25.58 0,-14.13 -11.46,-25.57 -25.61,-25.57 -14.11,0 -25.55,11.44 -25.55,25.57 0,14.14 11.44,25.58 25.55,25.58 z m 0,82.9 c 14.15,0 25.61,-11.43 25.61,-25.58 0,-14.11 -11.46,-25.56 -25.61,-25.56 -14.11,0 -25.55,11.45 -25.55,25.56 0,14.15 11.44,25.58 25.55,25.58" /></g></svg>