<svg xmlns="http://www.w3.org/2000/svg" viewBox="0 0 720 720"><g transform="matrix(1.0,0,0,-1.0,0,700)"><path style="fill:#4F4C4C;fill-rule:evenodd" d="m 515.41,515.69 -310.83,0 c -19.07,0 -34.53,-15.46 -34.53,-34.54 l 0,-224.48 c 0,-19.07 15.46,-34.54 34.53,-34.54 l 34.54,0 0,-69.07 73.39,69.07 202.9,0 c 19.07,0 34.54,15.47 34.54,34.54 l 0,224.48 c 0,19.08 -15.47,34.54 -34.54,34.54 z m -262.26,-112.95 c 18.69,0 33.83,-15.14 33.83,-33.83 0,-18.69 -15.14,-33.83 -33.83,-33.83 -18.69,0 -33.83,15.14 -33.83,33.83 0,18.69 15.14,33.83 33.83,33.83 z m 106.85,0 c 18.69,0 33.83,-15.14 33.83,-33.83 0,-18.69 -15.14,-33.83 -33.83,-33.83 -18.69,0 -33.83,15.14 -33.83,33.83 0,18.69 15.14,33.83 33.83,33.83 z m 106.85,0 c 18.69,0 33.83,-15.14 33.83,-33.83 0,-18.69 -15.14,-33.83 -33.83,-33.83 -18.69,0 -33.83,15.14 -33.83,33.83 0,18.69 15.14,33.83 33.83,33.83" /></g></svg>