<svg xmlns="http://www.w3.org/2000/svg" viewBox="0 0 720 720"><g transform="matrix(1.0,0,0,-1.0,0,700)"><path style="fill:#4F4C4C;fill-rule:evenodd" d="m 397.24,247.51 90.12,118.96 c 0.87,1.3 2.36,2.15 4.04,2.15 l 50.89,0 c 15.59,0 28.31,-12.72 28.31,-28.3 l -0.01,-112.9 c 0,-2.87 -2.52,-5.13 -5.37,-4.84 l -167.02,18.11 c -2.16,1.62 -2.57,4.68 -0.96,6.82 l 0,0 z m 173.36,-81.41 c 0,-11.14 0.78,-19.91 -8.31,-29 -5.13,-5.12 -12.2,-8.31 -20,-8.31 l -222.94,0.02 c -3.9,0 -6.31,4.5 -3.93,7.74 l 41.83,57.13 c 0.99,1.5 2.75,2.4 4.64,2.17 l 204.17,-24.88 c 2.53,-0.18 4.54,-2.3 4.54,-4.87 l 0,0 z m -349.27,-37.31 -43.63,0 c -15.55,0 -28.32,12.68 -28.32,28.31 l 0.01,59.15 c 0,2.9 2.56,5.19 5.45,4.84 l 127.19,-15.52 c 3.87,-0.46 5.67,-5.13 3.05,-8.06 l -59.84,-66.75 c -0.9,-1.19 -2.31,-1.97 -3.91,-1.97 l 0,0 z m -43.63,239.83 88.51,0 4.54,-65.86 c 0.05,-7.11 2.96,-13.55 7.63,-18.22 4.73,-4.72 11.26,-7.64 18.46,-7.64 7.19,0 13.2,2.76 18.37,7.64 l 0.08,0.09 c 4.68,4.7 7.59,11.11 7.65,18.13 l 4.52,65.86 103.99,0 c 4.11,0 6.8,-5.05 3.25,-8.53 l -102.86,-111.22 c -1.08,-1.16 -2.61,-1.68 -4.07,-1.52 l -174,18.12 c -2.5,0.26 -4.38,2.38 -4.38,4.84 l 0,70.01 c 0,15.56 12.73,28.3 28.31,28.3 l 0,0 z m 132.82,62.47 -8.8,-128.09 c 0,-2.69 -2.18,-4.89 -4.88,-4.89 -2.69,0 -4.89,2.2 -4.89,4.89 l -8.79,128.09 c -27.01,6.21 -47.16,30.4 -47.16,59.29 0,33.6 27.23,60.83 60.84,60.83 33.6,0 60.83,-27.24 60.83,-60.83 0,-28.89 -20.15,-53.09 -47.15,-59.29 l 0,0 z m -30.94,98.88 c 10.96,-8.79 -13.26,-35.89 -24.26,-27.09 -11,8.8 13.29,35.88 24.26,27.09 l 0,0" /></g></svg>