<svg xmlns="http://www.w3.org/2000/svg" viewBox="-5 -5 34 34"><path style="fill:#4F4C4C" d="M22.292,6.534c0-0.826-0.496-1.536-1.204-1.857c-0.306-0.743-1.036-1.269-1.888-1.269c-0.777,0-1.447,0.442-1.792,1.083c-0.345-0.641-1.014-1.083-1.792-1.083c-0.051,0-0.096,0.017-0.146,0.021l-3.243-3.241c-0.117-0.116-0.308-0.117-0.424,0L8.57,3.425C8.529,3.422,8.493,3.408,8.452,3.408c-0.777,0-1.447,0.442-1.792,1.083C6.316,3.851,5.646,3.408,4.869,3.408c-0.838,0-1.558,0.508-1.873,1.232c-0.753,0.3-1.289,1.034-1.289,1.894c0,0.777,0.442,1.447,1.083,1.792C2.149,8.67,1.708,9.34,1.708,10.117s0.442,1.447,1.083,1.792c-0.642,0.345-1.083,1.014-1.083,1.792s0.442,1.447,1.083,1.792c-0.642,0.345-1.083,1.014-1.083,1.792s0.442,1.447,1.083,1.792c-0.642,0.345-1.083,1.014-1.083,1.792c0,0.859,0.536,1.593,1.289,1.894c0.314,0.724,1.035,1.232,1.873,1.232c0.777,0,1.447-0.442,1.792-1.083c0.345,0.641,1.014,1.083,1.792,1.083s1.447-0.442,1.792-1.083c0.345,0.641,1.014,1.083,1.792,1.083s1.447-0.442,1.792-1.083c0.345,0.641,1.014,1.083,1.792,1.083s1.447-0.442,1.792-1.083c0.345,0.641,1.014,1.083,1.792,1.083c0.852,0,1.582-0.526,1.888-1.269c0.708-0.321,1.204-1.031,1.204-1.857c0-0.777-0.442-1.447-1.083-1.792c0.642-0.345,1.083-1.014,1.083-1.792s-0.442-1.447-1.083-1.792c0.642-0.345,1.083-1.014,1.083-1.792s-0.442-1.447-1.083-1.792c0.642-0.345,1.083-1.014,1.083-1.792s-0.442-1.447-1.083-1.792C21.851,7.981,22.292,7.312,22.292,6.534z M12.018,0.824l2.781,2.779c-0.411,0.187-0.758,0.491-0.972,0.888c-0.345-0.641-1.014-1.083-1.792-1.083s-1.447,0.442-1.792,1.083c-0.217-0.404-0.573-0.713-0.995-0.898L12.018,0.824z M20.001,21.701H3.999V5.7h16.002V21.701z"/><g transform="matrix(0.03,0,0,-0.03,1.2,24)"><path style="fill:#4F4C4C" d="m 360,556 c 53.75,0 97.31,-43.57 97.31,-97.31 0,-53.75 -43.56,-97.31 -97.31,-97.31 -53.74,0 -97.31,43.56 -97.31,97.31 0,53.74 43.57,97.31 97.31,97.31 z m 48.57,-221.62 c 59.7,-13.43 102.66,-50.92 102.66,-95.08 l 0,-115.3 -302.46,0 0,115.3 c 0,44.16 42.96,81.65 102.65,95.08 l 17.99,-31.16 30.59,-52.97 30.58,52.97 17.99,31.16" /></g></svg>