<svg xmlns="http://www.w3.org/2000/svg" viewBox="0 0 720 720"><g transform="matrix(1.0,0,0,-1.0,0,700)"><path style="fill:#4F4C4C;fill-rule:evenodd" d="m 332.81,567.37 c -7.97,-2.52 -18.17,-5.45 -30.61,-7.57 -24.85,-4.21 -42.19,-12.18 -42.19,-12.18 0,0 19.45,-71.02 27.89,-91.64 8.44,-20.63 10.31,-40.32 7.03,-63.29 -3.28,-22.96 -15.23,-41.01 -20.39,-63.04 -5.15,-22.04 -3.75,-83.1 -3.75,-83.1 l 79.21,0 0,-118.05 -82.88,-23.32 5.39,-19.22 87.49,24.61 87.49,-24.61 5.39,19.22 -82.88,23.32 0,118.05 79.21,0 c 0,0 1.4,61.06 -3.75,83.1 -5.16,22.03 -17.11,40.08 -20.39,63.04 -3.28,22.97 -1.41,42.66 7.03,63.29 8.44,20.62 27.89,91.64 27.89,91.64 0,0 -17.34,7.97 -42.19,12.18 -12.44,2.12 -22.64,5.05 -30.61,7.57 l 0,26.65 -54.38,0 0,-26.65" /></g></svg>