<svg xmlns="http://www.w3.org/2000/svg" viewBox="0 0 720 720"><g transform="matrix(1.0,0,0,-1.0,0,700)"><path style="fill:#4F4C4C;fill-rule:evenodd" d="m 338.32,169.81 -159.77,56.48 c -5.82,2.06 -9.45,7.52 -9.45,13.34 l -0.01,0 0,176.26 c 0,1.89 0.83,3.53 2.39,4.62 1.55,1.1 3.36,1.35 5.16,0.73 l 169.24,-59.85 0,-186.23 c 0,-1.91 -0.86,-3.53 -2.4,-4.63 -1.54,-1.11 -3.36,-1.34 -5.16,-0.72 l 0,0 z m 212.6,245.88 0,-176.06 c 0,-6.48 -4.36,-11.95 -10.31,-13.63 l -158.95,-56.19 c -1.78,-0.62 -3.59,-0.37 -5.16,0.72 -1.54,1.1 -2.4,2.72 -2.4,4.63 l 0.02,186.21 169.24,59.67 c 1.78,0.63 3.61,0.37 5.15,-0.72 1.55,-1.1 2.41,-2.74 2.41,-4.63 z m -352.54,38.55 156.91,55.49 c 3.17,1.12 6.47,1.04 9.42,0 l 0,0 157.17,-55.56 c 2.3,-0.82 3.76,-2.91 3.76,-5.36 0,-2.44 -1.46,-4.53 -3.79,-5.35 l -161.85,-57.04 -161.62,57.14 c -2.33,0.82 -3.79,2.89 -3.79,5.35 0,2.44 1.46,4.51 3.79,5.33 l 0,0" /></g></svg>