<svg xmlns="http://www.w3.org/2000/svg" viewBox="0 0 720 720" class="cpn-profile-svg"><g transform="matrix(1.0,0,0,-1.0,0,700)"><path style="fill:#4F4C4C;fill-rule:evenodd" d="m 360,556 c 53.75,0 97.31,-43.57 97.31,-97.31 0,-53.75 -43.56,-97.31 -97.31,-97.31 -53.74,0 -97.31,43.56 -97.31,97.31 0,53.74 43.57,97.31 97.31,97.31 z m 48.57,-221.62 c 59.7,-13.43 102.66,-50.92 102.66,-95.08 l 0,-115.3 -302.46,0 0,115.3 c 0,44.16 42.96,81.65 102.65,95.08 l 17.99,-31.16 30.59,-52.97 30.58,52.97 17.99,31.16" /></g></svg>