<svg xmlns="http://www.w3.org/2000/svg" viewBox="0 0 720 720"><g transform="matrix(1.0,0,0,-1.0,0,700)"><path style="fill:#4F4C4C;fill-rule:evenodd" d="m 133.13,463.99 453.74,0 0,-287.46 -453.74,0 0,287.46 z m 154.11,95.15 72.33,-61.76 72.33,61.76 12.97,-15.16 -78.82,-67.3 -6.48,-5.54 -6.49,5.54 -78.81,67.3 12.97,15.16 z m -29.95,-412.23 32.6,0 0,20.11 145.1,0 0,-20.11 32.6,0 0,-18.47 -210.3,0 0,18.47 z m 86.95,57.88 31.52,0 0,-9.79 -31.52,0 0,9.79 z m -169.82,224.97 371.15,0 0,-211.39 -371.15,0 0,211.39" /></g></svg>