<svg xmlns="http://www.w3.org/2000/svg" viewBox="0 0 720 720"><g transform="matrix(1.0,0,0,-1.0,0,700)"><path style="fill:#4F4C4C;fill-rule:evenodd" d="m 571.4,303.91 -74.64,58.26 c -2.4,1.86 -5.86,-0.03 -5.86,-2.97 l -0.01,-32.87 c -63.19,0.44 -116.24,0.61 -170.53,-40.24 -57.97,-43.63 -47.52,-137.8 3.36,-171.62 8.03,-5.35 16.28,4.18 8.88,10.38 -49.25,41.18 -22.69,108.43 39.05,131.68 47.24,17.79 75.47,18.69 119.24,18.69 l 0,-32.62 c 0,-2.93 3.4,-4.92 6.05,-2.85 l 74.54,58.17 c 1.98,1.55 1.98,4.57 -0.08,5.99 l 0,0 z m -57.01,158.56 -94.44,73.71 c -3.04,2.35 -7.41,-0.04 -7.41,-3.76 l -0.01,-41.59 c -79.95,0.56 -147.07,0.78 -215.76,-50.91 -73.34,-55.2 -60.11,-174.33 4.26,-217.14 10.16,-6.75 20.59,5.3 11.23,13.14 -62.3,52.11 -28.7,137.2 49.4,166.6 59.77,22.5 95.49,23.65 150.88,23.65 l -0.01,-41.28 c 0,-3.69 4.3,-6.21 7.65,-3.59 l 94.31,73.59 c 2.51,1.96 2.51,5.78 -0.1,7.58 l 0,0" /></g></svg>