<svg xmlns="http://www.w3.org/2000/svg" viewBox="0 0 720 720"><g transform="matrix(1.0,0,0,-1.0,0,700)"><path style="fill:#4F4C4C;fill-rule:evenodd" d="m 535,410.63 c 0.41,0.44 0.79,0.9 1.18,1.36 0.44,0.49 0.89,0.99 1.3,1.49 0.52,0.63 1.01,1.27 1.51,1.91 0.27,0.34 0.54,0.67 0.8,1.01 0.57,0.76 1.12,1.53 1.66,2.31 0.15,0.22 0.31,0.43 0.46,0.66 0.6,0.86 1.17,1.75 1.73,2.63 0.08,0.13 0.16,0.25 0.25,0.38 0.59,0.96 1.16,1.93 1.71,2.9 0.03,0.06 0.07,0.11 0.1,0.16 0.57,1.03 1.12,2.07 1.65,3.11 0,0 0.01,0.02 0.02,0.02 14.45,28.61 10.51,63.59 -12.35,86.44 -28.81,28.81 -76.89,27.6 -107.18,-2.69 -8.6,-8.61 -14.85,-18.65 -18.73,-29.28 l -0.01,0.01 c -0.03,-0.06 -0.04,-0.13 -0.06,-0.18 -0.15,-0.39 -0.28,-0.78 -0.41,-1.17 -0.21,-0.6 -0.41,-1.21 -0.6,-1.81 -0.13,-0.4 -0.26,-0.81 -0.38,-1.21 -0.19,-0.65 -0.38,-1.3 -0.56,-1.95 -0.09,-0.34 -0.18,-0.67 -0.27,-1.01 -0.26,-0.98 -0.49,-1.97 -0.71,-2.96 -0.03,-0.14 -0.06,-0.31 -0.09,-0.46 -0.19,-0.87 -0.36,-1.73 -0.51,-2.61 -0.05,-0.28 -0.1,-0.57 -0.14,-0.85 -0.14,-0.8 -0.25,-1.59 -0.36,-2.38 -0.03,-0.24 -0.07,-0.49 -0.1,-0.73 -0.26,-2.13 -0.44,-4.25 -0.52,-6.38 0,-0.07 0,-0.14 -0.01,-0.2 -0.04,-1.02 -0.06,-2.03 -0.05,-3.05 0,-0.1 0,-0.22 0,-0.32 0.12,-18.59 7.02,-36.83 20.82,-50.64 4.67,-4.67 12.26,-4.67 16.92,0 4.68,4.67 4.68,12.25 0,16.91 -2.25,2.26 -4.2,4.69 -5.9,7.26 -1.14,1.73 -2.15,3.51 -3.05,5.35 -0.09,0.18 -0.18,0.36 -0.26,0.53 -0.25,0.54 -0.48,1.07 -0.72,1.6 -0.08,0.19 -0.16,0.39 -0.23,0.58 -0.7,1.71 -1.31,3.45 -1.8,5.22 -0.07,0.25 -0.15,0.5 -0.21,0.75 -0.13,0.48 -0.25,0.98 -0.37,1.48 -0.07,0.32 -0.14,0.63 -0.21,0.95 -0.1,0.47 -0.19,0.94 -0.28,1.42 -0.06,0.36 -0.12,0.73 -0.18,1.09 -0.1,0.66 -0.2,1.32 -0.27,2 -0.07,0.53 -0.13,1.06 -0.17,1.58 -0.03,0.39 -0.06,0.78 -0.08,1.17 -0.03,0.46 -0.06,0.93 -0.07,1.39 -0.02,0.38 -0.03,0.76 -0.04,1.14 0,0.51 0,1.02 0.01,1.53 0.01,0.33 0.01,0.66 0.02,0.99 0.03,0.83 0.07,1.65 0.14,2.47 0.01,0.14 0.03,0.29 0.04,0.43 0.07,0.71 0.15,1.44 0.24,2.16 1.52,11.63 6.91,23.09 16.08,32.26 20.96,20.96 53.86,22.17 73.35,2.69 12.55,-12.56 16.5,-30.7 12.11,-47.63 l 0,0 c -0.6,-2.29 -1.35,-4.57 -2.25,-6.8 -0.03,-0.07 -0.06,-0.14 -0.09,-0.21 -0.89,-2.18 -1.92,-4.32 -3.1,-6.4 -0.07,-0.14 -0.15,-0.27 -0.23,-0.4 -0.51,-0.9 -1.06,-1.78 -1.63,-2.65 -0.1,-0.15 -0.19,-0.31 -0.3,-0.46 -0.64,-0.96 -1.31,-1.9 -2.01,-2.84 -0.11,-0.13 -0.22,-0.27 -0.33,-0.42 -0.6,-0.77 -1.22,-1.53 -1.87,-2.29 -0.2,-0.23 -0.4,-0.46 -0.6,-0.69 -0.77,-0.86 -1.56,-1.72 -2.4,-2.55 -2.56,-2.57 -5.33,-4.87 -8.25,-6.87 l 1.09,-24.46 0.1,-2.21 c 8.79,3.97 16.93,9.55 23.99,16.61 0.91,0.92 1.8,1.86 2.66,2.81 z m -48.29,-88.88 c 3.91,3.92 6.01,9.31 5.76,14.84 l -2.5,56.01 -2.5,56.02 c -0.23,5.1 -2.39,9.7 -5.76,13.07 -3.37,3.38 -7.97,5.53 -13.07,5.76 l -26.54,1.19 c -0.72,-2.31 -1.24,-4.67 -1.56,-7.06 -0.07,-0.53 -0.13,-1.1 -0.18,-1.67 -0.01,-0.13 -0.03,-0.27 -0.05,-0.44 -0.04,-0.54 -0.07,-1.13 -0.1,-1.82 0,-0.14 0,-0.28 0,-0.41 l -0.01,-0.33 c 0,-0.39 -0.01,-0.79 0,-1.18 0,-0.3 0.01,-0.59 0.02,-0.88 0.01,-0.35 0.04,-0.71 0.06,-1.07 l 0.02,-0.33 c 0.01,-0.19 0.01,-0.37 0.04,-0.58 0.02,-0.37 0.07,-0.75 0.12,-1.12 l 0,-0.08 c 0.07,-0.49 0.13,-1.01 0.22,-1.51 l 0.04,-0.24 c 0.03,-0.21 0.05,-0.41 0.08,-0.6 0.08,-0.36 0.15,-0.72 0.22,-1.07 0.05,-0.25 0.11,-0.5 0.17,-0.74 0.08,-0.36 0.17,-0.73 0.26,-1.09 0.01,-0.02 0.01,-0.03 0.02,-0.06 l 0.07,-0.22 0.08,-0.3 c 0.05,-0.19 0.12,-0.38 0.17,-0.56 5.44,-1.52 10.57,-4.41 14.84,-8.68 13.24,-13.24 13.23,-34.71 -0.01,-47.96 -13.24,-13.24 -34.71,-13.24 -47.96,0 -8.82,8.81 -11.75,21.28 -8.84,32.53 -4.8,10.65 -7.38,22.34 -7.45,34.51 l 0,0.4 c -0.01,1.19 0.02,2.38 0.06,3.46 l 0,0.3 c 0.11,2.43 0.31,4.91 0.61,7.35 0.03,0.21 0.06,0.42 0.09,0.64 l 0.03,0.22 c 0.12,0.93 0.26,1.85 0.4,2.71 l 0.01,0.05 -36.97,1.64 c -5.53,0.26 -10.91,-1.83 -14.83,-5.76 l -171.83,-171.83 c -7.71,-7.7 -7.71,-20.2 0,-27.91 l 117.03,-117.03 c 7.71,-7.71 20.2,-7.71 27.91,0 l 171.83,171.83" /></g></svg>