<svg xmlns="http://www.w3.org/2000/svg" viewBox="0 0 720 720"><g transform="matrix(1.0,0,0,-1.0,0,700)"><path style="fill:#4F4C4C;fill-rule:evenodd" d="m 361.49,481.13 c -60.7,0 -109.93,-44.93 -109.93,-100.33 0,-56.85 58.87,-85.19 62.08,-141.99 l 94.92,0 c 3.21,56.67 62.85,85.28 62.85,141.99 0,55.4 -49.23,100.32 -109.92,100.33 z m 55.11,-273.17 -111.13,13.92 c -8.43,1.06 -15.32,-4.98 -15.32,-13.41 l 0,0 c 0,-8.42 6.9,-16.19 15.32,-17.25 l 111.1,-13.9 c 8.42,-1.05 15.32,4.98 15.32,13.41 l 0,0 c -0.01,8.43 -6.9,16.19 -15.33,17.24 l 0.01,0 z m -42.69,315.03 0,55.96 -26.03,0 0,-55.95 26.03,-0.01 z m 70.72,-26.85 27.98,48.46 -22.47,13.01 -27.98,-48.46 22.47,-13.01 z m -145.48,14.69 -27.97,48.46 -22.47,-12.92 27.97,-48.45 22.47,12.91 z m -58.61,-47.84 -48.45,27.97 -13.02,-22.47 48.46,-27.97 13.01,22.47 z m 251.93,-25.46 48.46,27.98 -12.92,22.46 -48.45,-27.97 12.91,-22.47 z m -75.87,-273.88 c 8.42,-1.05 15.31,-8.82 15.31,-17.25 l 0,0 c 0.01,-8.42 -6.89,-14.46 -15.32,-13.41 l -111.12,13.92 c -8.42,1.06 -15.32,8.82 -15.32,17.25 l 0,0 c 0,8.43 6.89,14.47 15.32,13.41 l 111.13,-13.92 z m -93.69,-28.1 c 1.31,-19.27 17.36,-34.49 36.96,-34.5 16.42,0 30.34,10.67 35.2,25.46 l -72.16,9.04" /></g></svg>