<svg xmlns="http://www.w3.org/2000/svg" viewBox="0 0 720 720"><g transform="matrix(1.0,0,0,-1.0,0,700)"><path style="fill:#4F4C4C;fill-rule:evenodd" d="m 438.76,167.4 c -21.42,-13.47 -46.75,-21.3 -73.92,-21.3 -60.92,0 -112.66,39.19 -131.48,93.72 35.59,-16.62 75.89,-32.87 119.07,-47.3 29.79,-9.94 58.8,-18.3 86.33,-25.12 z m 121.81,149.22 c -15.9,0 -28.78,12.89 -28.78,28.78 0,15.9 12.88,28.79 28.78,28.79 15.89,0 28.78,-12.89 28.78,-28.79 0,-15.89 -12.89,-28.78 -28.78,-28.78 z m -290.23,118.13 c -27.38,0 -49.57,22.19 -49.57,49.57 0,27.37 22.19,49.57 49.57,49.57 27.37,0 49.57,-22.2 49.57,-49.57 0,-27.38 -22.19,-49.57 -49.57,-49.57 z m 233.4,-156.81 c -0.03,-0.5 -0.08,-1 -0.11,-1.51 -0.13,-1.9 -0.25,-3.8 -0.45,-5.68 -0.04,-0.41 -0.11,-0.82 -0.16,-1.24 -0.09,-0.81 -0.21,-1.61 -0.31,-2.42 -0.15,-1.15 -0.27,-2.31 -0.46,-3.45 -0.03,-0.27 -0.09,-0.54 -0.13,-0.8 -0.34,-2.09 -0.71,-4.17 -1.14,-6.22 -0.03,-0.12 -0.06,-0.24 -0.09,-0.36 -0.46,-2.2 -0.97,-4.38 -1.54,-6.53 -0.01,-0.02 -0.01,-0.03 -0.01,-0.04 -1.8,-6.79 -4.08,-13.37 -6.83,-19.71 -0.02,-0.06 -0.05,-0.11 -0.08,-0.17 -34.99,6.25 -77.81,17.3 -123.29,32.49 -53.93,18 -101.41,38.42 -134.79,56.95 2.43,11.73 6.4,23.31 12.04,34.45 1.07,2.13 2.21,4.24 3.41,6.34 1.15,2.02 2.35,3.99 3.59,5.93 4.47,7 9.52,13.45 14.99,19.38 25.01,24.09 58.99,38.93 96.46,38.93 57.93,0 107.57,-35.42 128.48,-85.79 2.56,-6.12 4.68,-12.46 6.34,-18.99 0.02,-0.1 0.04,-0.19 0.06,-0.28 0.53,-2.1 1.01,-4.21 1.45,-6.35 0.05,-0.27 0.09,-0.54 0.14,-0.81 0.39,-1.96 0.75,-3.94 1.05,-5.92 0.09,-0.59 0.14,-1.19 0.22,-1.78 0.24,-1.69 0.47,-3.38 0.64,-5.09 0.1,-1.05 0.16,-2.11 0.24,-3.17 0.1,-1.27 0.22,-2.53 0.29,-3.81 0.12,-2.35 0.18,-4.71 0.18,-7.1 0,-1.13 -0.06,-2.24 -0.09,-3.36 -0.03,-1.3 -0.04,-2.6 -0.1,-3.89 z m -410.27,105.43 c 22.84,4.99 64.42,1.9 117,-8.19 9.56,-1.83 19.45,-3.88 29.7,-6.17 -2.31,-4.37 -4.56,-8.85 -6.62,-13.33 -9.87,1.39 -18.91,2.31 -26.95,2.74 -8.22,0.43 -15.42,0.36 -21.41,-0.25 -11.3,-1.16 -18.37,-4.21 -20.07,-9.32 -1.71,-5.12 2.13,-11.84 10.52,-19.58 10.44,-9.63 27.94,-20.86 50.61,-32.65 32.43,-16.86 75.44,-34.86 123.6,-50.94 49.76,-16.62 96.35,-28.29 132.97,-34.12 43.52,-6.94 72.95,-5.61 76.69,5.58 0.01,0.05 0.01,0.1 0.03,0.14 0.66,2.13 0.34,4.54 -0.81,7.16 -4.21,9.62 -20.14,22.33 -44.44,36.25 0.09,0.55 0.17,1.1 0.26,1.65 0.68,4.48 1.2,9.19 1.56,13.96 21.54,-9.85 41.05,-19.63 57.99,-29.07 43.88,-24.45 70.59,-46.57 71.79,-61.66 0.02,-0.31 0.05,-0.61 0.06,-0.91 0,-1.32 -0.11,-2.61 -0.51,-3.81 -7.26,-21.73 -81.35,-17.8 -181.98,6.28 -37.5,8.98 -78.67,20.73 -121.47,35.02 -41.49,13.86 -80.3,28.7 -114.86,43.58 -69.23,29.83 -121.18,59.84 -142.46,82.56 -8.46,9.04 -12.13,16.93 -10.04,23.18 1.9,5.71 8.45,9.63 18.84,11.9" /></g></svg>