<svg xmlns="http://www.w3.org/2000/svg" viewBox="0 0 720 720"><g transform="matrix(1.0,0,0,-1.0,0,700)"><path style="fill:#4F4C4C;fill-rule:evenodd" d="m 200.84,237.72 c -14.8,0 -14.8,22.47 0,22.47 l 238.84,0 c 2.36,12.31 4.68,24.49 6.98,36.57 l -253.64,0 0,0.03 c -5.2,-0.01 -9.86,3.63 -10.96,8.92 l -32.2,152.85 c -0.63,6.15 3.86,11.66 10.02,12.29 l 326.62,34.51 c 10.59,28.32 32.32,32.52 54.86,37.25 7.84,24.09 43.84,18.51 43.84,-6.96 0,-20.64 -25.58,-30.23 -39.22,-14.97 -15.52,-3.26 -35.42,-5.26 -39.85,-27.84 l -6.31,-33.95 -262.11,-26.98 c -4.93,-0.49 -8.53,-4.87 -8.04,-9.8 0.48,-4.92 4.87,-8.52 9.79,-8.04 l 256.96,26.45 -5.35,-28.7 -250.41,-18.58 c -4.95,-0.35 -8.67,-4.65 -8.32,-9.59 0.34,-4.94 4.63,-8.67 9.58,-8.32 l 245.76,18.24 -5.54,-29.63 -235.38,-9.77 c -4.94,-0.2 -8.8,-4.36 -8.6,-9.31 0.19,-4.94 4.36,-8.8 9.3,-8.6 l 231.29,9.61 c -6.3,-33.53 -12.53,-66.44 -18.66,-98.34 -0.7,-5.54 -5.43,-9.81 -11.14,-9.81 l -248.11,0 z m 21.54,-20.14 c 42.34,0 63.9,-51.46 33.69,-81.6 -30.05,-29.98 -81.46,-8.53 -81.46,33.82 0,26.33 21.44,47.78 47.77,47.78 l 0,0 z m 211.79,0 c 42.34,0 63.9,-51.46 33.69,-81.6 -30.05,-29.98 -81.46,-8.53 -81.46,33.82 0,26.33 21.44,47.78 47.77,47.78 l 0,0" /></g></svg>